<svg width="191" height="62" viewBox="0 0 191 62" fill="none" xmlns="http://www.w3.org/2000/svg">
<path d="M10.1068 42H0.974152L11.2636 10.8271H22.8317L33.1212 42H23.9885L17.1694 19.4118H16.9259L10.1068 42ZM8.40206 29.7013H25.5715V36.0333H8.40206V29.7013ZM31.8373 42V10.8271H40.2393V22.6996H40.3611C40.6655 21.9081 41.112 21.1826 41.7006 20.523C42.2891 19.8533 43.0197 19.3205 43.8924 18.9248C44.7651 18.5189 45.7798 18.3159 46.9366 18.3159C48.479 18.3159 49.9453 18.7269 51.3355 19.5488C52.7359 20.3708 53.8724 21.6646 54.7451 23.4302C55.6279 25.1959 56.0693 27.4892 56.0693 30.3102C56.0693 33.0094 55.6482 35.2469 54.806 37.0227C53.9739 38.7985 52.8577 40.1227 51.4573 40.9954C50.0671 41.8681 48.5399 42.3044 46.8757 42.3044C45.7798 42.3044 44.8006 42.1268 43.9381 41.7717C43.0857 41.4064 42.3551 40.9142 41.7462 40.2952C41.1475 39.6661 40.6858 38.9558 40.3611 38.1643H40.1785V42H31.8373ZM40.0567 30.3102C40.0567 31.4467 40.2038 32.431 40.4981 33.2631C40.8025 34.085 41.2287 34.7243 41.7767 35.1809C42.3348 35.6274 42.9994 35.8507 43.7706 35.8507C44.5418 35.8507 45.1963 35.6325 45.7342 35.1962C46.2821 34.7497 46.6982 34.1155 46.9823 33.2935C47.2766 32.4614 47.4237 31.467 47.4237 30.3102C47.4237 29.1534 47.2766 28.164 46.9823 27.3421C46.6982 26.51 46.2821 25.8758 45.7342 25.4394C45.1963 24.9929 44.5418 24.7697 43.7706 24.7697C42.9994 24.7697 42.3348 24.9929 41.7767 25.4394C41.2287 25.8758 40.8025 26.51 40.4981 27.3421C40.2038 28.164 40.0567 29.1534 40.0567 30.3102Z" fill="white"/>
<path d="M56 40H67" stroke="white" stroke-width="3.15141"/>
<path fill-rule="evenodd" clip-rule="evenodd" d="M69 11.0001V42.199C69 42.199 79.1311 42.1328 84.4419 42.199C89.7527 42.2653 97.1106 34.8338 97.0475 27.0723C96.9827 19.0957 90.9077 11.0003 84.4419 11.0001C77.9761 10.9999 69 11.0001 69 11.0001ZM86.2087 15.4491L82.0173 22.6343H94.1124C93.4745 20.8779 92.4518 19.361 91.0443 18.0837C89.6368 16.8063 88.025 15.9281 86.2087 15.4491ZM74.5926 18.4429L78.6942 25.6281L84.8016 15.1497C84.5222 15.1106 84.2128 15.0759 83.8735 15.0455C83.5342 15.0152 83.2348 15 82.9754 15C81.3196 15 79.7779 15.3094 78.3505 15.9281C76.923 16.5468 75.6704 17.3851 74.5926 18.4429ZM71.1042 28.5022C71.1745 29.0012 71.2695 29.4902 71.3892 29.9692H79.6821L73.6346 19.5207C72.7963 20.5586 72.1477 21.7062 71.6886 22.9636C71.2295 24.221 71 25.5583 71 26.9754C70.9992 27.4943 71.0339 28.0033 71.1042 28.5022ZM74.9219 35.8671C76.339 37.1444 77.9557 38.0226 79.7719 38.5016L83.9034 31.3164H71.8383C72.477 33.0728 73.5049 34.5897 74.9219 35.8671ZM82.0616 38.8908C82.3714 38.9308 82.676 38.9507 82.9754 38.9507C84.6327 38.9507 86.1748 38.6414 87.6014 38.0226C89.0281 37.4039 90.2803 36.5656 91.3581 35.5078L87.2565 28.3226L81.1791 38.7711C81.4577 38.811 81.7519 38.8509 82.0616 38.8908ZM86.2686 23.9815L92.3161 34.43C93.0953 33.4121 93.7292 32.2645 94.2178 30.9871C94.7064 29.7097 94.9507 28.3725 94.9507 26.9754C94.9515 26.4564 94.9168 25.9475 94.8465 25.4485C94.7763 24.9495 94.6812 24.4605 94.5615 23.9815H86.2686Z" fill="white"/>
<path d="M123.351 42.2383V11.0654H145.817V17.8845H131.814V23.2423H144.661V30.0614H131.814V35.4192H145.756V42.2383H123.351Z" fill="white"/>
<path d="M98.14 42V10.8271H120.606V17.6462H106.603V23.004H119.45V29.8231H106.603V35.1809H120.546V42H98.14Z" fill="white"/>
<path d="M176.165 10.8271V42H169.102L157.838 25.6221H157.656V42H149.193V10.8271H156.377L167.458 27.1442H167.702V10.8271H176.165Z" fill="white"/>
<circle cx="181.849" cy="9.45414" r="2.75748" stroke="white" stroke-width="0.787852"/>
<path d="M182.857 9.14239H182.231C182.227 9.09058 182.215 9.04358 182.195 9.00139C182.177 8.9592 182.151 8.92293 182.118 8.89259C182.085 8.8615 182.046 8.83781 181.999 8.82153C181.952 8.80451 181.899 8.796 181.84 8.796C181.737 8.796 181.649 8.82116 181.577 8.87149C181.506 8.92182 181.452 8.99399 181.415 9.08799C181.379 9.18198 181.361 9.29486 181.361 9.4266C181.361 9.56575 181.379 9.68233 181.416 9.77633C181.454 9.86959 181.508 9.9399 181.579 9.98727C181.65 10.0339 181.736 10.0572 181.836 10.0572C181.893 10.0572 181.944 10.0502 181.989 10.0361C182.034 10.0213 182.073 10.0002 182.107 9.97284C182.14 9.94545 182.167 9.91251 182.188 9.87403C182.209 9.8348 182.224 9.79076 182.231 9.74191L182.857 9.74635C182.85 9.84257 182.823 9.94064 182.776 10.0406C182.73 10.1397 182.663 10.2315 182.577 10.3159C182.492 10.3995 182.387 10.4669 182.261 10.518C182.135 10.569 181.989 10.5946 181.822 10.5946C181.614 10.5946 181.426 10.5498 181.261 10.4602C181.096 10.3707 180.965 10.2389 180.869 10.065C180.773 9.89105 180.726 9.67826 180.726 9.4266C180.726 9.17347 180.774 8.96031 180.872 8.78711C180.97 8.61318 181.102 8.4818 181.267 8.39298C181.433 8.30343 181.618 8.25865 181.822 8.25865C181.966 8.25865 182.098 8.27826 182.219 8.31749C182.339 8.35672 182.445 8.41408 182.536 8.48957C182.627 8.56433 182.701 8.65648 182.756 8.76602C182.812 8.87556 182.845 9.00102 182.857 9.14239Z" fill="white"/>
<path d="M15.9393 59V50.2727H19.0501C19.729 50.2727 20.2915 50.3963 20.7376 50.6435C21.1836 50.8906 21.5174 51.2287 21.739 51.6577C21.9606 52.0838 22.0714 52.5639 22.0714 53.098C22.0714 53.6349 21.9592 54.1179 21.7347 54.5469C21.5131 54.973 21.1779 55.3111 20.729 55.5611C20.283 55.8082 19.7219 55.9318 19.0458 55.9318H16.9066V54.8153H18.9265C19.3555 54.8153 19.7035 54.7415 19.9705 54.5938C20.2376 54.4432 20.4336 54.2386 20.5586 53.9801C20.6836 53.7216 20.7461 53.4276 20.7461 53.098C20.7461 52.7685 20.6836 52.4759 20.5586 52.2202C20.4336 51.9645 20.2362 51.7642 19.9663 51.6193C19.6992 51.4744 19.3469 51.402 18.9094 51.402H17.256V59H15.9393ZM24.7869 55.1136V59H23.5128V50.2727H24.7699V53.5199H24.8509C25.0043 53.1676 25.2386 52.8878 25.554 52.6804C25.8693 52.473 26.2813 52.3693 26.7898 52.3693C27.2386 52.3693 27.6307 52.4616 27.9659 52.6463C28.304 52.831 28.5653 53.1065 28.75 53.473C28.9375 53.8366 29.0312 54.2912 29.0312 54.8366V59H27.7571V54.9901C27.7571 54.5099 27.6335 54.1378 27.3864 53.8736C27.1392 53.6065 26.7955 53.473 26.3551 53.473C26.054 53.473 25.7841 53.5369 25.5455 53.6648C25.3097 53.7926 25.1236 53.9801 24.9872 54.2273C24.8537 54.4716 24.7869 54.767 24.7869 55.1136ZM33.4886 59.1321C32.875 59.1321 32.3395 58.9915 31.8821 58.7102C31.4247 58.429 31.0696 58.0355 30.8168 57.5298C30.5639 57.0241 30.4375 56.4332 30.4375 55.7571C30.4375 55.0781 30.5639 54.4844 30.8168 53.9759C31.0696 53.4673 31.4247 53.0724 31.8821 52.7912C32.3395 52.5099 32.875 52.3693 33.4886 52.3693C34.1023 52.3693 34.6378 52.5099 35.0952 52.7912C35.5526 53.0724 35.9077 53.4673 36.1605 53.9759C36.4134 54.4844 36.5398 55.0781 36.5398 55.7571C36.5398 56.4332 36.4134 57.0241 36.1605 57.5298C35.9077 58.0355 35.5526 58.429 35.0952 58.7102C34.6378 58.9915 34.1023 59.1321 33.4886 59.1321ZM33.4929 58.0625C33.8906 58.0625 34.2202 57.9574 34.4815 57.7472C34.7429 57.5369 34.9361 57.2571 35.0611 56.9077C35.1889 56.5582 35.2528 56.1733 35.2528 55.7528C35.2528 55.3352 35.1889 54.9517 35.0611 54.6023C34.9361 54.25 34.7429 53.9673 34.4815 53.7543C34.2202 53.5412 33.8906 53.4347 33.4929 53.4347C33.0923 53.4347 32.7599 53.5412 32.4957 53.7543C32.2344 53.9673 32.0398 54.25 31.9119 54.6023C31.7869 54.9517 31.7244 55.3352 31.7244 55.7528C31.7244 56.1733 31.7869 56.5582 31.9119 56.9077C32.0398 57.2571 32.2344 57.5369 32.4957 57.7472C32.7599 57.9574 33.0923 58.0625 33.4929 58.0625ZM41.0174 52.4545V53.4773H37.4421V52.4545H41.0174ZM38.4009 50.8864H39.6751V57.0781C39.6751 57.3253 39.712 57.5114 39.7859 57.6364C39.8597 57.7585 39.9549 57.8423 40.0714 57.8878C40.1907 57.9304 40.32 57.9517 40.4592 57.9517C40.5614 57.9517 40.6509 57.9446 40.7276 57.9304C40.8043 57.9162 40.864 57.9048 40.9066 57.8963L41.1367 58.9489C41.0629 58.9773 40.9577 59.0057 40.8214 59.0341C40.685 59.0653 40.5146 59.0824 40.31 59.0852C39.9748 59.0909 39.6623 59.0312 39.3725 58.9062C39.0827 58.7812 38.8484 58.5881 38.6694 58.3267C38.4904 58.0653 38.4009 57.7372 38.4009 57.3423V50.8864ZM45.1136 59.1321C44.5 59.1321 43.9645 58.9915 43.5071 58.7102C43.0497 58.429 42.6946 58.0355 42.4418 57.5298C42.1889 57.0241 42.0625 56.4332 42.0625 55.7571C42.0625 55.0781 42.1889 54.4844 42.4418 53.9759C42.6946 53.4673 43.0497 53.0724 43.5071 52.7912C43.9645 52.5099 44.5 52.3693 45.1136 52.3693C45.7273 52.3693 46.2628 52.5099 46.7202 52.7912C47.1776 53.0724 47.5327 53.4673 47.7855 53.9759C48.0384 54.4844 48.1648 55.0781 48.1648 55.7571C48.1648 56.4332 48.0384 57.0241 47.7855 57.5298C47.5327 58.0355 47.1776 58.429 46.7202 58.7102C46.2628 58.9915 45.7273 59.1321 45.1136 59.1321ZM45.1179 58.0625C45.5156 58.0625 45.8452 57.9574 46.1065 57.7472C46.3679 57.5369 46.5611 57.2571 46.6861 56.9077C46.8139 56.5582 46.8778 56.1733 46.8778 55.7528C46.8778 55.3352 46.8139 54.9517 46.6861 54.6023C46.5611 54.25 46.3679 53.9673 46.1065 53.7543C45.8452 53.5412 45.5156 53.4347 45.1179 53.4347C44.7173 53.4347 44.3849 53.5412 44.1207 53.7543C43.8594 53.9673 43.6648 54.25 43.5369 54.6023C43.4119 54.9517 43.3494 55.3352 43.3494 55.7528C43.3494 56.1733 43.4119 56.5582 43.5369 56.9077C43.6648 57.2571 43.8594 57.5369 44.1207 57.7472C44.3849 57.9574 44.7173 58.0625 45.1179 58.0625ZM52.3313 61.5909C51.8114 61.5909 51.364 61.5227 50.989 61.3864C50.6168 61.25 50.3129 61.0696 50.0771 60.8452C49.8413 60.6207 49.6651 60.375 49.5487 60.108L50.6438 59.6562C50.7205 59.7812 50.8228 59.9134 50.9506 60.0526C51.0813 60.1946 51.2575 60.3153 51.479 60.4148C51.7035 60.5142 51.9918 60.5639 52.3441 60.5639C52.8271 60.5639 53.2262 60.446 53.5415 60.2102C53.8569 59.9773 54.0146 59.6051 54.0146 59.0938V57.8068H53.9336C53.8569 57.946 53.7461 58.1009 53.6012 58.2713C53.4592 58.4418 53.2631 58.5895 53.0131 58.7145C52.7631 58.8395 52.4379 58.902 52.0373 58.902C51.5202 58.902 51.0543 58.7812 50.6396 58.5398C50.2276 58.2955 49.9009 57.9361 49.6594 57.4616C49.4208 56.9844 49.3015 56.3977 49.3015 55.7017C49.3015 55.0057 49.4194 54.4091 49.6552 53.9119C49.8938 53.4148 50.2205 53.0341 50.6353 52.7699C51.0501 52.5028 51.5202 52.3693 52.0458 52.3693C52.4521 52.3693 52.7802 52.4375 53.0302 52.5739C53.2802 52.7074 53.4748 52.8636 53.614 53.0426C53.756 53.2216 53.8654 53.3793 53.9421 53.5156H54.0359V52.4545H55.2844V59.1449C55.2844 59.7074 55.1538 60.169 54.8924 60.5298C54.631 60.8906 54.2773 61.1577 53.8313 61.331C53.3881 61.5043 52.8881 61.5909 52.3313 61.5909ZM52.3185 57.8452C52.685 57.8452 52.9947 57.7599 53.2475 57.5895C53.5032 57.4162 53.6964 57.169 53.8271 56.848C53.9606 56.5241 54.0273 56.1364 54.0273 55.6847C54.0273 55.2443 53.962 54.8565 53.8313 54.5213C53.7006 54.1861 53.5089 53.9247 53.256 53.7372C53.0032 53.5469 52.6907 53.4517 52.3185 53.4517C51.935 53.4517 51.6154 53.5511 51.3597 53.75C51.104 53.946 50.9109 54.2131 50.7802 54.5511C50.6523 54.8892 50.5884 55.267 50.5884 55.6847C50.5884 56.1136 50.6538 56.4901 50.7844 56.8139C50.9151 57.1378 51.1083 57.3906 51.364 57.5724C51.6225 57.7543 51.9407 57.8452 52.3185 57.8452ZM56.9933 59V52.4545H58.2248V53.4943H58.293C58.4123 53.142 58.6225 52.8651 58.9237 52.6634C59.2276 52.4588 59.5714 52.3565 59.9549 52.3565C60.0344 52.3565 60.1282 52.3594 60.2362 52.3651C60.3469 52.3707 60.4336 52.3778 60.4961 52.3864V53.6051C60.445 53.5909 60.354 53.5753 60.2234 53.5582C60.0927 53.5384 59.962 53.5284 59.8313 53.5284C59.5302 53.5284 59.2617 53.5923 59.0259 53.7202C58.793 53.8452 58.6083 54.0199 58.4719 54.2443C58.3356 54.4659 58.2674 54.7187 58.2674 55.0028V59H56.9933ZM63.445 59.1449C63.0302 59.1449 62.6552 59.0682 62.32 58.9148C61.9847 58.7585 61.7191 58.5327 61.5231 58.2372C61.3299 57.9418 61.2333 57.5795 61.2333 57.1506C61.2333 56.7812 61.3043 56.4773 61.4464 56.2386C61.5884 56 61.7802 55.8111 62.0217 55.6719C62.2631 55.5327 62.533 55.4276 62.8313 55.3565C63.1296 55.2855 63.4336 55.2315 63.7433 55.1946C64.1353 55.1491 64.4535 55.1122 64.6978 55.0838C64.9421 55.0526 65.1197 55.0028 65.2305 54.9347C65.3413 54.8665 65.3967 54.7557 65.3967 54.6023V54.5724C65.3967 54.2003 65.2915 53.9119 65.0813 53.7074C64.8739 53.5028 64.5643 53.4006 64.1523 53.4006C63.7234 53.4006 63.3853 53.4957 63.1381 53.6861C62.8938 53.8736 62.7248 54.0824 62.631 54.3125L61.4336 54.0398C61.5756 53.642 61.783 53.321 62.0558 53.0767C62.3313 52.8295 62.6481 52.6506 63.006 52.5398C63.364 52.4261 63.7404 52.3693 64.1353 52.3693C64.3967 52.3693 64.6737 52.4006 64.9663 52.4631C65.2617 52.5227 65.5373 52.6335 65.793 52.7955C66.0515 52.9574 66.2631 53.1889 66.4279 53.4901C66.5927 53.7884 66.6751 54.1761 66.6751 54.6534V59H65.4308V58.1051H65.3796C65.2972 58.2699 65.1737 58.4318 65.0089 58.5909C64.8441 58.75 64.6325 58.8821 64.3739 58.9872C64.1154 59.0923 63.8058 59.1449 63.445 59.1449ZM63.7219 58.1222C64.0742 58.1222 64.3754 58.0526 64.6254 57.9134C64.8782 57.7741 65.07 57.5923 65.2006 57.3679C65.3342 57.1406 65.4009 56.8977 65.4009 56.6392V55.7955C65.3555 55.8409 65.2674 55.8835 65.1367 55.9233C65.0089 55.9602 64.8626 55.9929 64.6978 56.0213C64.533 56.0469 64.3725 56.071 64.2163 56.0938C64.06 56.1136 63.9293 56.1307 63.8242 56.1449C63.5771 56.1761 63.3512 56.2287 63.1467 56.3026C62.945 56.3764 62.783 56.483 62.6609 56.6222C62.5415 56.7585 62.4819 56.9403 62.4819 57.1676C62.4819 57.483 62.5984 57.7216 62.8313 57.8835C63.0643 58.0426 63.3612 58.1222 63.7219 58.1222ZM68.3722 61.4545V52.4545H69.6165V53.5156H69.723C69.7969 53.3793 69.9034 53.2216 70.0426 53.0426C70.1818 52.8636 70.375 52.7074 70.6222 52.5739C70.8693 52.4375 71.196 52.3693 71.6023 52.3693C72.1307 52.3693 72.6023 52.5028 73.017 52.7699C73.4318 53.0369 73.7571 53.4219 73.9929 53.9247C74.2315 54.4276 74.3509 55.0327 74.3509 55.7401C74.3509 56.4474 74.233 57.054 73.9972 57.5597C73.7614 58.0625 73.4375 58.4503 73.0256 58.723C72.6136 58.9929 72.1435 59.1278 71.6151 59.1278C71.2173 59.1278 70.892 59.0611 70.6392 58.9276C70.3892 58.794 70.1932 58.6378 70.0511 58.4588C69.9091 58.2798 69.7997 58.1207 69.723 57.9815H69.6463V61.4545H68.3722ZM69.6207 55.7273C69.6207 56.1875 69.6875 56.5909 69.821 56.9375C69.9545 57.2841 70.1477 57.5554 70.4006 57.7514C70.6534 57.9446 70.9631 58.0412 71.3295 58.0412C71.7102 58.0412 72.0284 57.9403 72.2841 57.7386C72.5398 57.5341 72.733 57.2571 72.8636 56.9077C72.9972 56.5582 73.0639 56.1648 73.0639 55.7273C73.0639 55.2955 72.9986 54.9077 72.8679 54.5639C72.7401 54.2202 72.5469 53.9489 72.2884 53.75C72.0327 53.5511 71.7131 53.4517 71.3295 53.4517C70.9602 53.4517 70.6477 53.5469 70.392 53.7372C70.1392 53.9276 69.9474 54.1932 69.8168 54.5341C69.6861 54.875 69.6207 55.2727 69.6207 55.7273ZM77.0526 55.1136V59H75.7784V50.2727H77.0355V53.5199H77.1165C77.2699 53.1676 77.5043 52.8878 77.8196 52.6804C78.1349 52.473 78.5469 52.3693 79.0554 52.3693C79.5043 52.3693 79.8963 52.4616 80.2315 52.6463C80.5696 52.831 80.831 53.1065 81.0156 53.473C81.2031 53.8366 81.2969 54.2912 81.2969 54.8366V59H80.0227V54.9901C80.0227 54.5099 79.8991 54.1378 79.652 53.8736C79.4048 53.6065 79.0611 53.473 78.6207 53.473C78.3196 53.473 78.0497 53.5369 77.8111 53.6648C77.5753 53.7926 77.3892 53.9801 77.2528 54.2273C77.1193 54.4716 77.0526 54.767 77.0526 55.1136ZM83.5682 61.4545C83.3778 61.4545 83.2045 61.4389 83.0483 61.4077C82.892 61.3793 82.7756 61.348 82.6989 61.3139L83.0057 60.2699C83.2386 60.3324 83.446 60.3594 83.6278 60.3509C83.8097 60.3423 83.9702 60.2741 84.1094 60.1463C84.2514 60.0185 84.3764 59.8097 84.4844 59.5199L84.642 59.0852L82.2472 52.4545H83.6108L85.2685 57.5341H85.3366L86.9943 52.4545H88.3622L85.6648 59.8736C85.5398 60.2145 85.3807 60.5028 85.1875 60.7386C84.9943 60.9773 84.7642 61.1563 84.4972 61.2756C84.2301 61.3949 83.9205 61.4545 83.5682 61.4545ZM95.2752 59.1236C94.69 59.1236 94.1857 59.017 93.7624 58.804C93.342 58.5909 93.0181 58.3011 92.7908 57.9347C92.5636 57.5653 92.4499 57.1477 92.4499 56.6818C92.4499 56.3267 92.5238 56.0114 92.6715 55.7358C92.8192 55.4574 93.0252 55.2003 93.2894 54.9645C93.5536 54.7287 93.859 54.4915 94.2056 54.2528L95.6119 53.2599C95.8505 53.1037 96.0366 52.9389 96.1701 52.7656C96.3036 52.5895 96.3704 52.3722 96.3704 52.1136C96.3704 51.9091 96.2823 51.7131 96.1062 51.5256C95.93 51.3381 95.6942 51.2443 95.3988 51.2443C95.1942 51.2443 95.0138 51.294 94.8576 51.3935C94.7042 51.4929 94.5835 51.6207 94.4954 51.777C94.4102 51.9304 94.3675 52.0923 94.3675 52.2628C94.3675 52.4616 94.4215 52.6619 94.5295 52.8636C94.6403 53.0653 94.7823 53.2741 94.9556 53.4901C95.1289 53.7031 95.3107 53.9247 95.5011 54.1548L99.5536 59H98.1133L94.7596 55.0582C94.4783 54.7259 94.217 54.4134 93.9755 54.1207C93.734 53.8253 93.538 53.527 93.3874 53.2259C93.2397 52.9219 93.1658 52.5938 93.1658 52.2415C93.1658 51.8409 93.2567 51.4858 93.4386 51.1761C93.6232 50.8636 93.8803 50.6193 94.2099 50.4432C94.5394 50.267 94.9258 50.179 95.369 50.179C95.8178 50.179 96.2028 50.267 96.5238 50.4432C96.8477 50.6165 97.0962 50.848 97.2695 51.1378C97.4457 51.4247 97.5337 51.7386 97.5337 52.0795C97.5337 52.4943 97.43 52.8608 97.2227 53.179C97.0181 53.4943 96.7354 53.7841 96.3746 54.0483L94.6232 55.3395C94.2823 55.5895 94.0451 55.8366 93.9116 56.081C93.7809 56.3224 93.7156 56.5114 93.7156 56.6477C93.7156 56.8977 93.7795 57.1293 93.9073 57.3423C94.038 57.5554 94.2198 57.7259 94.4528 57.8537C94.6886 57.9815 94.9641 58.0455 95.2795 58.0455C95.6033 58.0455 95.9187 57.9759 96.2255 57.8366C96.5352 57.6946 96.815 57.4915 97.065 57.2273C97.3178 56.9631 97.5181 56.6463 97.6658 56.277C97.8136 55.9077 97.8874 55.4943 97.8874 55.0369H99.038C99.038 55.5994 98.9741 56.0753 98.8462 56.4645C98.7184 56.8509 98.5636 57.1662 98.3817 57.4105C98.2028 57.652 98.0337 57.8409 97.8746 57.9773C97.8235 58.0227 97.7752 58.0682 97.7298 58.1136C97.6843 58.1591 97.636 58.2045 97.5849 58.25C97.2894 58.5483 96.9315 58.7685 96.511 58.9105C96.0934 59.0526 95.6815 59.1236 95.2752 59.1236ZM104.593 50.2727L107.022 57.3807H107.12L109.549 50.2727H110.972L107.831 59H106.31L103.169 50.2727H104.593ZM112.13 59V52.4545H113.404V59H112.13ZM112.773 51.4446C112.552 51.4446 112.362 51.3707 112.202 51.223C112.046 51.0724 111.968 50.8935 111.968 50.6861C111.968 50.4759 112.046 50.2969 112.202 50.1491C112.362 49.9986 112.552 49.9233 112.773 49.9233C112.995 49.9233 113.184 49.9986 113.34 50.1491C113.499 50.2969 113.579 50.4759 113.579 50.6861C113.579 50.8935 113.499 51.0724 113.34 51.223C113.184 51.3707 112.995 51.4446 112.773 51.4446ZM117.569 59.1278C117.04 59.1278 116.569 58.9929 116.154 58.723C115.742 58.4503 115.418 58.0625 115.182 57.5597C114.949 57.054 114.833 56.4474 114.833 55.7401C114.833 55.0327 114.951 54.4276 115.186 53.9247C115.425 53.4219 115.752 53.0369 116.167 52.7699C116.581 52.5028 117.051 52.3693 117.577 52.3693C117.983 52.3693 118.31 52.4375 118.557 52.5739C118.807 52.7074 119 52.8636 119.137 53.0426C119.276 53.2216 119.384 53.3793 119.461 53.5156H119.537V50.2727H120.811V59H119.567V57.9815H119.461C119.384 58.1207 119.273 58.2798 119.128 58.4588C118.986 58.6378 118.79 58.794 118.54 58.9276C118.29 59.0611 117.966 59.1278 117.569 59.1278ZM117.85 58.0412C118.216 58.0412 118.526 57.9446 118.779 57.7514C119.034 57.5554 119.228 57.2841 119.358 56.9375C119.492 56.5909 119.559 56.1875 119.559 55.7273C119.559 55.2727 119.493 54.875 119.363 54.5341C119.232 54.1932 119.04 53.9276 118.787 53.7372C118.534 53.5469 118.222 53.4517 117.85 53.4517C117.466 53.4517 117.147 53.5511 116.891 53.75C116.635 53.9489 116.442 54.2202 116.311 54.5639C116.184 54.9077 116.12 55.2955 116.12 55.7273C116.12 56.1648 116.185 56.5582 116.316 56.9077C116.446 57.2571 116.64 57.5341 116.895 57.7386C117.154 57.9403 117.472 58.0412 117.85 58.0412ZM125.451 59.1321C124.806 59.1321 124.251 58.9943 123.785 58.7188C123.322 58.4403 122.964 58.0497 122.711 57.5469C122.461 57.0412 122.336 56.4489 122.336 55.7699C122.336 55.0994 122.461 54.5085 122.711 53.9972C122.964 53.4858 123.316 53.0866 123.768 52.7997C124.222 52.5128 124.754 52.3693 125.362 52.3693C125.731 52.3693 126.089 52.4304 126.435 52.5526C126.782 52.6747 127.093 52.8665 127.369 53.1278C127.644 53.3892 127.862 53.7287 128.021 54.1463C128.18 54.5611 128.259 55.0653 128.259 55.6591V56.1108H123.056V55.1562H127.011C127.011 54.821 126.942 54.5241 126.806 54.2656C126.67 54.0043 126.478 53.7983 126.231 53.6477C125.987 53.4972 125.7 53.4219 125.37 53.4219C125.012 53.4219 124.7 53.5099 124.433 53.6861C124.168 53.8594 123.964 54.0866 123.819 54.3679C123.677 54.6463 123.606 54.9489 123.606 55.2756V56.0213C123.606 56.4588 123.683 56.831 123.836 57.1378C123.992 57.4446 124.21 57.679 124.488 57.8409C124.766 58 125.092 58.0795 125.464 58.0795C125.705 58.0795 125.925 58.0455 126.124 57.9773C126.323 57.9062 126.495 57.8011 126.64 57.6619C126.785 57.5227 126.896 57.3509 126.972 57.1463L128.178 57.3636C128.082 57.7187 127.908 58.0298 127.658 58.2969C127.411 58.5611 127.1 58.767 126.725 58.9148C126.353 59.0597 125.928 59.1321 125.451 59.1321ZM132.43 59.1321C131.816 59.1321 131.281 58.9915 130.824 58.7102C130.366 58.429 130.011 58.0355 129.758 57.5298C129.505 57.0241 129.379 56.4332 129.379 55.7571C129.379 55.0781 129.505 54.4844 129.758 53.9759C130.011 53.4673 130.366 53.0724 130.824 52.7912C131.281 52.5099 131.816 52.3693 132.43 52.3693C133.044 52.3693 133.579 52.5099 134.037 52.7912C134.494 53.0724 134.849 53.4673 135.102 53.9759C135.355 54.4844 135.481 55.0781 135.481 55.7571C135.481 56.4332 135.355 57.0241 135.102 57.5298C134.849 58.0355 134.494 58.429 134.037 58.7102C133.579 58.9915 133.044 59.1321 132.43 59.1321ZM132.434 58.0625C132.832 58.0625 133.162 57.9574 133.423 57.7472C133.684 57.5369 133.877 57.2571 134.002 56.9077C134.13 56.5582 134.194 56.1733 134.194 55.7528C134.194 55.3352 134.13 54.9517 134.002 54.6023C133.877 54.25 133.684 53.9673 133.423 53.7543C133.162 53.5412 132.832 53.4347 132.434 53.4347C132.034 53.4347 131.701 53.5412 131.437 53.7543C131.176 53.9673 130.981 54.25 130.853 54.6023C130.728 54.9517 130.666 55.3352 130.666 55.7528C130.666 56.1733 130.728 56.5582 130.853 56.9077C130.981 57.2571 131.176 57.5369 131.437 57.7472C131.701 57.9574 132.034 58.0625 132.434 58.0625ZM139.648 61.5909C139.128 61.5909 138.68 61.5227 138.305 61.3864C137.933 61.25 137.629 61.0696 137.393 60.8452C137.158 60.6207 136.982 60.375 136.865 60.108L137.96 59.6562C138.037 59.7812 138.139 59.9134 138.267 60.0526C138.398 60.1946 138.574 60.3153 138.795 60.4148C139.02 60.5142 139.308 60.5639 139.661 60.5639C140.143 60.5639 140.543 60.446 140.858 60.2102C141.173 59.9773 141.331 59.6051 141.331 59.0938V57.8068H141.25C141.173 57.946 141.063 58.1009 140.918 58.2713C140.776 58.4418 140.58 58.5895 140.33 58.7145C140.08 58.8395 139.754 58.902 139.354 58.902C138.837 58.902 138.371 58.7812 137.956 58.5398C137.544 58.2955 137.217 57.9361 136.976 57.4616C136.737 56.9844 136.618 56.3977 136.618 55.7017C136.618 55.0057 136.736 54.4091 136.972 53.9119C137.21 53.4148 137.537 53.0341 137.952 52.7699C138.366 52.5028 138.837 52.3693 139.362 52.3693C139.768 52.3693 140.097 52.4375 140.347 52.5739C140.597 52.7074 140.791 52.8636 140.93 53.0426C141.072 53.2216 141.182 53.3793 141.259 53.5156H141.352V52.4545H142.601V59.1449C142.601 59.7074 142.47 60.169 142.209 60.5298C141.947 60.8906 141.594 61.1577 141.148 61.331C140.705 61.5043 140.205 61.5909 139.648 61.5909ZM139.635 57.8452C140.001 57.8452 140.311 57.7599 140.564 57.5895C140.82 57.4162 141.013 57.169 141.143 56.848C141.277 56.5241 141.344 56.1364 141.344 55.6847C141.344 55.2443 141.278 54.8565 141.148 54.5213C141.017 54.1861 140.825 53.9247 140.572 53.7372C140.32 53.5469 140.007 53.4517 139.635 53.4517C139.251 53.4517 138.932 53.5511 138.676 53.75C138.42 53.946 138.227 54.2131 138.097 54.5511C137.969 54.8892 137.905 55.267 137.905 55.6847C137.905 56.1136 137.97 56.4901 138.101 56.8139C138.232 57.1378 138.425 57.3906 138.68 57.5724C138.939 57.7543 139.257 57.8452 139.635 57.8452ZM144.31 59V52.4545H145.541V53.4943H145.609C145.729 53.142 145.939 52.8651 146.24 52.6634C146.544 52.4588 146.888 52.3565 147.271 52.3565C147.351 52.3565 147.445 52.3594 147.553 52.3651C147.663 52.3707 147.75 52.3778 147.812 52.3864V53.6051C147.761 53.5909 147.67 53.5753 147.54 53.5582C147.409 53.5384 147.278 53.5284 147.148 53.5284C146.847 53.5284 146.578 53.5923 146.342 53.7202C146.109 53.8452 145.925 54.0199 145.788 54.2443C145.652 54.4659 145.584 54.7187 145.584 55.0028V59H144.31ZM150.761 59.1449C150.347 59.1449 149.972 59.0682 149.636 58.9148C149.301 58.7585 149.036 58.5327 148.839 58.2372C148.646 57.9418 148.55 57.5795 148.55 57.1506C148.55 56.7812 148.621 56.4773 148.763 56.2386C148.905 56 149.097 55.8111 149.338 55.6719C149.58 55.5327 149.849 55.4276 150.148 55.3565C150.446 55.2855 150.75 55.2315 151.06 55.1946C151.452 55.1491 151.77 55.1122 152.014 55.0838C152.259 55.0526 152.436 55.0028 152.547 54.9347C152.658 54.8665 152.713 54.7557 152.713 54.6023V54.5724C152.713 54.2003 152.608 53.9119 152.398 53.7074C152.19 53.5028 151.881 53.4006 151.469 53.4006C151.04 53.4006 150.702 53.4957 150.455 53.6861C150.21 53.8736 150.041 54.0824 149.947 54.3125L148.75 54.0398C148.892 53.642 149.099 53.321 149.372 53.0767C149.648 52.8295 149.964 52.6506 150.322 52.5398C150.68 52.4261 151.057 52.3693 151.452 52.3693C151.713 52.3693 151.99 52.4006 152.283 52.4631C152.578 52.5227 152.854 52.6335 153.109 52.7955C153.368 52.9574 153.58 53.1889 153.744 53.4901C153.909 53.7884 153.991 54.1761 153.991 54.6534V59H152.747V58.1051H152.696C152.614 58.2699 152.49 58.4318 152.325 58.5909C152.161 58.75 151.949 58.8821 151.69 58.9872C151.432 59.0923 151.122 59.1449 150.761 59.1449ZM151.038 58.1222C151.391 58.1222 151.692 58.0526 151.942 57.9134C152.195 57.7741 152.386 57.5923 152.517 57.3679C152.651 57.1406 152.717 56.8977 152.717 56.6392V55.7955C152.672 55.8409 152.584 55.8835 152.453 55.9233C152.325 55.9602 152.179 55.9929 152.014 56.0213C151.849 56.0469 151.689 56.071 151.533 56.0938C151.376 56.1136 151.246 56.1307 151.141 56.1449C150.893 56.1761 150.668 56.2287 150.463 56.3026C150.261 56.3764 150.099 56.483 149.977 56.6222C149.858 56.7585 149.798 56.9403 149.798 57.1676C149.798 57.483 149.915 57.7216 150.148 57.8835C150.381 58.0426 150.678 58.1222 151.038 58.1222ZM155.689 61.4545V52.4545H156.933V53.5156H157.039C157.113 53.3793 157.22 53.2216 157.359 53.0426C157.498 52.8636 157.691 52.7074 157.939 52.5739C158.186 52.4375 158.512 52.3693 158.919 52.3693C159.447 52.3693 159.919 52.5028 160.333 52.7699C160.748 53.0369 161.074 53.4219 161.309 53.9247C161.548 54.4276 161.667 55.0327 161.667 55.7401C161.667 56.4474 161.549 57.054 161.314 57.5597C161.078 58.0625 160.754 58.4503 160.342 58.723C159.93 58.9929 159.46 59.1278 158.931 59.1278C158.534 59.1278 158.208 59.0611 157.956 58.9276C157.706 58.794 157.51 58.6378 157.368 58.4588C157.225 58.2798 157.116 58.1207 157.039 57.9815H156.963V61.4545H155.689ZM156.937 55.7273C156.937 56.1875 157.004 56.5909 157.137 56.9375C157.271 57.2841 157.464 57.5554 157.717 57.7514C157.97 57.9446 158.279 58.0412 158.646 58.0412C159.027 58.0412 159.345 57.9403 159.6 57.7386C159.856 57.5341 160.049 57.2571 160.18 56.9077C160.314 56.5582 160.38 56.1648 160.38 55.7273C160.38 55.2955 160.315 54.9077 160.184 54.5639C160.056 54.2202 159.863 53.9489 159.605 53.75C159.349 53.5511 159.029 53.4517 158.646 53.4517C158.277 53.4517 157.964 53.5469 157.708 53.7372C157.456 53.9276 157.264 54.1932 157.133 54.5341C157.002 54.875 156.937 55.2727 156.937 55.7273ZM164.369 55.1136V59H163.095V50.2727H164.352V53.5199H164.433C164.586 53.1676 164.821 52.8878 165.136 52.6804C165.451 52.473 165.863 52.3693 166.372 52.3693C166.821 52.3693 167.213 52.4616 167.548 52.6463C167.886 52.831 168.147 53.1065 168.332 53.473C168.52 53.8366 168.613 54.2912 168.613 54.8366V59H167.339V54.9901C167.339 54.5099 167.216 54.1378 166.968 53.8736C166.721 53.6065 166.377 53.473 165.937 53.473C165.636 53.473 165.366 53.5369 165.127 53.6648C164.892 53.7926 164.706 53.9801 164.569 54.2273C164.436 54.4716 164.369 54.767 164.369 55.1136ZM170.885 61.4545C170.694 61.4545 170.521 61.4389 170.365 61.4077C170.208 61.3793 170.092 61.348 170.015 61.3139L170.322 60.2699C170.555 60.3324 170.762 60.3594 170.944 60.3509C171.126 60.3423 171.287 60.2741 171.426 60.1463C171.568 60.0185 171.693 59.8097 171.801 59.5199L171.958 59.0852L169.564 52.4545H170.927L172.585 57.5341H172.653L174.311 52.4545H175.679L172.981 59.8736C172.856 60.2145 172.697 60.5028 172.504 60.7386C172.311 60.9773 172.081 61.1563 171.814 61.2756C171.547 61.3949 171.237 61.4545 170.885 61.4545Z" fill="white"/>
</svg>
