<svg width="108" height="108" viewBox="0 0 108 108" fill="none" xmlns="http://www.w3.org/2000/svg">
<rect y="108" width="108" height="107.795" rx="53.8974" transform="rotate(-90 0 108)" fill="#87A5B6"/>
<path d="M96.4436 66.4252L96.766 64.0793C97.0112 64.0811 97.2374 64.0468 97.4446 63.9765C97.6519 63.9062 97.8353 63.8008 97.9949 63.6601C98.1544 63.5195 98.2852 63.3447 98.3873 63.1356C98.492 62.9301 98.5624 62.696 98.5985 62.4332C98.6626 61.9672 98.6037 61.5495 98.4218 61.1803C98.2394 60.8142 97.9449 60.5108 97.5382 60.2701C97.131 60.0325 96.6209 59.8715 96.0078 59.7872C95.3697 59.6995 94.8224 59.7167 94.3658 59.8388C93.9119 59.9645 93.5526 60.178 93.2881 60.4795C93.0263 60.7845 92.864 61.1654 92.8012 61.6221C92.766 61.8786 92.7668 62.1161 92.8037 62.3347C92.8401 62.5564 92.9099 62.7557 93.0131 62.9324C93.119 63.1127 93.2556 63.2669 93.4228 63.3951C93.5927 63.5268 93.7906 63.6289 94.0165 63.7014L93.68 66.0454C93.2602 65.9463 92.858 65.7651 92.4735 65.5019C92.0886 65.2418 91.7501 64.9101 91.4582 64.5066C91.1694 64.1036 90.9601 63.6318 90.8304 63.0913C90.7003 62.554 90.6806 61.9553 90.7713 61.2953C90.8909 60.4257 91.1887 59.673 91.6649 59.0373C92.1438 58.4052 92.7781 57.941 93.5678 57.6448C94.3575 57.3486 95.2794 57.2729 96.3335 57.4178C97.3907 57.5631 98.2592 57.888 98.9388 58.3926C99.6184 58.8971 100.102 59.5197 100.389 60.2603C100.676 61.0009 100.761 61.7982 100.643 62.6521C100.563 63.2339 100.408 63.7608 100.177 64.2326C99.95 64.7049 99.6556 65.1075 99.2943 65.4403C98.9362 65.7735 98.5174 66.0267 98.0378 66.1998C97.5583 66.3729 97.0269 66.448 96.4436 66.4252Z" fill="white"/>
<path d="M90.3717 77.987C89.3928 77.5618 88.6449 77.0132 88.1279 76.3411C87.6108 75.669 87.3153 74.9348 87.2412 74.1384C87.1659 73.3449 87.3012 72.55 87.6471 71.7536C87.9943 70.9543 88.485 70.312 89.1192 69.8267C89.7534 69.3414 90.4911 69.0577 91.3323 68.9756C92.1751 68.8976 93.0845 69.0706 94.0605 69.4945C95.0393 69.9197 95.7879 70.4668 96.3062 71.136C96.8232 71.8081 97.1194 72.5409 97.1947 73.3344C97.27 74.1279 97.1341 74.9242 96.7869 75.7235C96.4409 76.5199 95.9523 77.1614 95.321 77.6479C94.6885 78.1374 93.9501 78.4226 93.1061 78.5034C92.262 78.5843 91.3505 78.4121 90.3717 77.987ZM91.3264 75.7889C91.9056 76.0405 92.4309 76.1705 92.9022 76.1791C93.3723 76.1905 93.7768 76.0874 94.1158 75.8697C94.4535 75.6549 94.7154 75.3332 94.9016 74.9046C95.0865 74.4789 95.1428 74.0679 95.0705 73.6716C94.9983 73.2754 94.7981 72.9079 94.4702 72.5692C94.141 72.2335 93.6868 71.9398 93.1076 71.6882C92.5284 71.4366 92.0038 71.3051 91.5337 71.2937C91.0623 71.2852 90.6572 71.3898 90.3182 71.6074C89.9793 71.8251 89.7173 72.1468 89.5324 72.5725C89.3463 73.0011 89.2899 73.4121 89.3635 73.8055C89.4358 74.2018 89.6365 74.5678 89.9657 74.9036C90.2936 75.2422 90.7472 75.5373 91.3264 75.7889Z" fill="white"/>
<path d="M87.0896 90.1494L79.5656 84.0282L80.8209 82.4851L87.5993 83.0238L87.6382 82.9761L83.2957 79.4432L84.7752 77.6247L92.2992 83.7459L91.0259 85.3109L84.2818 84.7452L84.231 84.8076L88.5661 88.3345L87.0896 90.1494Z" fill="white"/>
<path d="M82.3247 92.076L83.4227 93.6315L76.725 98.3592L75.6271 96.8037L78.0299 95.1077L73.5343 88.7389L75.4225 87.4061L79.9181 93.7748L82.3247 92.076Z" fill="white"/>
<path d="M65.4409 93.0153L67.815 92.1716L67.9795 102.407L65.0386 103.452L58.7068 95.4086L61.0809 94.5649L65.6572 100.639L65.7286 100.613L65.4409 93.0153ZM67.036 96.4996L62.0736 98.2632L61.4773 96.5853L66.4397 94.8217L67.036 96.4996Z" fill="white"/>
<path d="M48.7372 102.213L51.0997 102.052C51.1478 102.292 51.2273 102.507 51.3384 102.695C51.4494 102.884 51.5899 103.042 51.7601 103.17C51.9302 103.297 52.128 103.39 52.3534 103.447C52.576 103.508 52.8195 103.529 53.0841 103.511C53.5535 103.479 53.9504 103.336 54.2749 103.083C54.5962 102.83 54.8333 102.48 54.9863 102.033C55.1361 101.586 55.1899 101.054 55.1477 100.436C55.1037 99.7935 54.9755 99.2611 54.7631 98.8389C54.5477 98.4201 54.2656 98.1118 53.9166 97.9141C53.5646 97.7199 53.1587 97.6384 52.6988 97.6699C52.4405 97.6876 52.2081 97.7367 52.0016 97.8173C51.7919 97.8981 51.6111 98.007 51.459 98.144C51.3041 98.2843 51.1809 98.4494 51.0894 98.6392C50.995 98.8324 50.9353 99.0469 50.9103 99.2828L48.5468 99.4303C48.5585 98.9991 48.654 98.5684 48.8335 98.1384C49.0098 97.7086 49.2658 97.3097 49.6014 96.9418C49.9372 96.5771 50.3565 96.2762 50.8593 96.0393C51.359 95.8026 51.9412 95.6615 52.6058 95.616C53.4815 95.5561 54.279 95.6946 54.9983 96.0315C55.7147 96.3718 56.2982 96.8983 56.7489 97.6112C57.1996 98.3241 57.4612 99.2113 57.5338 100.273C57.6067 101.338 57.4652 102.254 57.1095 103.022C56.7538 103.79 56.2426 104.39 55.5758 104.822C54.9091 105.253 54.1458 105.499 53.2858 105.557C52.6999 105.598 52.1525 105.553 51.6436 105.423C51.1349 105.296 50.6809 105.09 50.2816 104.804C49.8825 104.521 49.5494 104.163 49.2823 103.728C49.0152 103.294 48.8335 102.789 48.7372 102.213Z" fill="white"/>
<path d="M45.1563 103.496L44.7689 105.36L36.7423 103.692L37.1296 101.828L40.0092 102.426L41.5953 94.7938L43.8581 95.264L42.2721 102.897L45.1563 103.496Z" fill="white"/>
<path d="M14.0374 88.0103L20.6578 80.9215L22.1115 82.2792L21.1115 89.0051L21.1565 89.0471L24.9775 84.9559L26.6908 86.556L20.0704 93.6447L18.5959 92.2676L19.6206 85.5778L19.5617 85.5229L15.7473 89.6072L14.0374 88.0103Z" fill="white"/>
<path d="M9.87762 73.2394C10.7895 72.6849 11.669 72.3902 12.5162 72.3554C13.3635 72.3206 14.1337 72.5026 14.8271 72.9013C15.5187 73.2974 16.0901 73.8663 16.5413 74.6082C16.9941 75.3528 17.2358 76.1241 17.2666 76.922C17.2973 77.72 17.1037 78.4863 16.6857 79.2209C16.2633 79.9544 15.5976 80.5976 14.6885 81.1505C13.7766 81.705 12.8979 82.001 12.0523 82.0385C11.2051 82.0733 10.4356 81.8927 9.74395 81.4966C9.05227 81.1006 8.48004 80.5303 8.02726 79.7857C7.57611 79.0438 7.33382 78.2747 7.30039 77.4784C7.26532 76.6793 7.45813 75.9117 7.87883 75.1755C8.29952 74.4392 8.96579 73.7939 9.87762 73.2394ZM11.1228 75.287C10.5832 75.6151 10.1741 75.9692 9.8953 76.3494C9.61488 76.7268 9.46585 77.1168 9.44821 77.5192C9.42892 77.9189 9.54068 78.3185 9.78348 78.7177C10.0246 79.1143 10.3279 79.3973 10.6934 79.5668C11.0588 79.7363 11.4744 79.7847 11.9402 79.7121C12.4044 79.6368 12.9062 79.435 13.4458 79.1069C13.9853 78.7788 14.3953 78.426 14.6757 78.0486C14.9545 77.6684 15.1027 77.2771 15.1203 76.8747C15.138 76.4722 15.0262 76.0727 14.7851 75.6762C14.5423 75.2769 14.239 74.9939 13.8752 74.8271C13.5097 74.6576 13.0949 74.6105 12.6308 74.6859C12.165 74.7585 11.6623 74.9589 11.1228 75.287Z" fill="white"/>
<path d="M13.3311 68.6284L4.7529 73.9633L4.05396 71.4688L9.77925 68.3448L9.75752 68.2673L3.18635 68.3722L2.61646 66.3383L8.29921 63.0098L8.27748 62.9323L1.74757 63.2372L1.04991 60.7472L11.15 60.8437L11.7595 63.0191L6.5669 66.2889L6.58735 66.3619L12.7229 66.4577L13.3311 68.6284Z" fill="white"/>
<path d="M9.73014 36.4379L9.09125 38.7181C8.84863 38.683 8.61987 38.6861 8.40496 38.7275C8.19005 38.7689 7.99399 38.8484 7.81678 38.966C7.63956 39.0836 7.48617 39.239 7.35661 39.4322C7.22487 39.6216 7.12322 39.8439 7.05166 40.0993C6.92474 40.5523 6.92625 40.9741 7.05619 41.3646C7.18698 41.7521 7.43746 42.0928 7.80761 42.3867C8.17861 42.6776 8.66207 42.9065 9.25796 43.0734C9.87819 43.2472 10.4228 43.3047 10.8917 43.2459C11.3585 43.1832 11.7435 43.0206 12.0466 42.7579C12.3475 42.4914 12.5602 42.1362 12.6845 41.6923C12.7544 41.443 12.7859 41.2076 12.7792 40.986C12.7732 40.7613 12.7312 40.5545 12.653 40.3653C12.5727 40.1723 12.4584 40.0009 12.3102 39.8512C12.1597 39.6976 11.9776 39.5695 11.7637 39.4669L12.4162 37.1905C12.8187 37.3459 13.1924 37.5801 13.5375 37.8932C13.8834 38.2033 14.1736 38.5781 14.4078 39.0175C14.6391 39.4561 14.7821 39.952 14.837 40.5051C14.8927 41.0552 14.8307 41.651 14.651 42.2925C14.4142 43.1377 14.0166 43.8428 13.4583 44.4077C12.8978 44.9687 12.2062 45.3422 11.3835 45.5282C10.5609 45.7141 9.63727 45.6635 8.61269 45.3765C7.58507 45.0885 6.76897 44.6484 6.16438 44.056C5.5598 43.4636 5.16576 42.781 4.98225 42.0082C4.79874 41.2354 4.82326 40.434 5.05582 39.604C5.21426 39.0385 5.43983 38.5378 5.73252 38.1017C6.02217 37.6648 6.36859 37.3061 6.77181 37.0255C7.17198 36.7442 7.62139 36.5504 8.12004 36.4442C8.61869 36.338 9.15539 36.3359 9.73014 36.4379Z" fill="white"/>
<path d="M17.3184 25.8104C18.2302 26.3649 18.8965 27.0103 19.3172 27.7465C19.7379 28.4827 19.9307 29.2504 19.8956 30.0494C19.8622 30.8458 19.6199 31.6149 19.1688 32.3567C18.716 33.1013 18.1424 33.6708 17.448 34.0652C16.7537 34.4596 15.9842 34.6403 15.1397 34.6071C14.2941 34.5696 13.4167 34.2744 12.5076 33.7215C11.5957 33.167 10.9287 32.523 10.5063 31.7895C10.0856 31.0533 9.89199 30.287 9.92542 29.4906C9.95886 28.6943 10.202 27.9238 10.6548 27.1793C11.1059 26.4374 11.6773 25.8684 12.369 25.4724C13.0623 25.0736 13.8326 24.8916 14.6798 24.9265C15.5271 24.9613 16.4066 25.2559 17.3184 25.8104ZM16.0733 27.858C15.5337 27.5299 15.031 27.3295 14.5652 27.2569C14.1011 27.1816 13.6863 27.2287 13.3209 27.3982C12.9571 27.5649 12.6538 27.848 12.411 28.2472C12.1698 28.6438 12.0581 29.0433 12.0757 29.4457C12.0933 29.8482 12.2416 30.2395 12.5203 30.6196C12.8007 30.9971 13.2107 31.3499 13.7503 31.678C14.2898 32.0061 14.7917 32.2078 15.2558 32.2831C15.7216 32.3558 16.1372 32.3073 16.5027 32.1378C16.8681 31.9684 17.1714 31.6853 17.4126 31.2888C17.6554 30.8895 17.7671 30.49 17.7478 30.0903C17.7302 29.6878 17.5812 29.2979 17.3007 28.9204C17.022 28.5402 16.6128 28.1861 16.0733 27.858Z" fill="white"/>
<path d="M22.227 14.2096L28.8474 21.2983L27.3936 22.656L20.7517 21.1993L20.7067 21.2413L24.5277 25.3326L22.8144 26.9327L16.1939 19.844L17.6685 18.4669L24.2728 19.9458L24.3316 19.8908L20.5171 15.8065L22.227 14.2096Z" fill="white"/>
<path d="M27.2096 12.9492L26.3337 11.2588L33.6127 7.4871L34.4886 9.17754L31.8773 10.5306L35.4637 17.4522L33.4117 18.5155L29.8252 11.5939L27.2096 12.9492Z" fill="white"/>
<path d="M44.0637 14.3178L41.5968 14.8305L42.8276 4.66802L45.8834 4.03302L51.061 12.8638L48.5941 13.3764L44.8875 6.73599L44.8133 6.75141L44.0637 14.3178ZM42.9578 10.6488L48.1142 9.57731L48.4765 11.3208L43.3202 12.3923L42.9578 10.6488Z" fill="white"/>
<path d="M61.8649 7.47887L59.5024 7.31727C59.4875 7.07257 59.4379 6.84922 59.3536 6.64724C59.2693 6.44526 59.1516 6.26948 59.0004 6.11989C58.8493 5.9703 58.6659 5.85174 58.4504 5.7642C58.2382 5.67373 57.9998 5.61945 57.7352 5.60135C57.2658 5.56925 56.8532 5.65653 56.4973 5.86322C56.1445 6.07011 55.8619 6.38466 55.6494 6.80687C55.4401 7.22929 55.3144 7.7492 55.2722 8.36661C55.2282 9.00921 55.2827 9.55411 55.4357 10.0013C55.592 10.4456 55.8296 10.7894 56.1484 11.0327C56.4706 11.2731 56.8616 11.4091 57.3215 11.4405C57.5798 11.4582 57.8168 11.4412 58.0323 11.3895C58.2511 11.338 58.4451 11.2547 58.6143 11.1397C58.787 11.0217 58.9315 10.875 59.048 10.6994C59.1678 10.5209 59.2561 10.3164 59.313 10.0861L61.6746 10.2619C61.6043 10.6875 61.451 11.1011 61.2147 11.5027C60.9815 11.9045 60.6736 12.2648 60.291 12.5836C59.9086 12.8992 59.4522 13.1402 58.9219 13.3064C58.3946 13.4729 57.7987 13.5334 57.134 13.488C56.2583 13.4281 55.4871 13.1823 54.8204 12.7505C54.157 12.3159 53.6506 11.7148 53.3012 10.9472C52.9518 10.1795 52.8134 9.26495 52.886 8.20339C52.9588 7.13868 53.2237 6.2501 53.6807 5.53764C54.1377 4.82518 54.7259 4.3005 55.4452 3.9636C56.1644 3.6267 56.9541 3.48766 57.814 3.54649C58.3999 3.58656 58.9361 3.70552 59.4226 3.90337C59.9093 4.09806 60.331 4.36426 60.6877 4.70197C61.0446 5.03653 61.3258 5.43712 61.5312 5.90373C61.7366 6.37034 61.8479 6.89539 61.8649 7.47887Z" fill="white"/>
<path d="M65.5864 6.69685L66.224 4.90288L73.9488 7.64827L73.3112 9.44224L70.5399 8.45733L67.9293 15.8028L65.7516 15.0288L68.3621 7.68335L65.5864 6.69685Z" fill="white"/>
<path d="M91.4345 18.4207L83.9105 24.5419L82.6551 22.9989L84.5617 16.4719L84.5228 16.4241L80.1803 19.957L78.7008 18.1384L86.2248 12.0172L87.4981 13.5823L85.572 20.0702L85.6228 20.1327L89.9579 16.6058L91.4345 18.4207Z" fill="white"/>
<path d="M94.5435 32.6198C93.5647 33.045 92.6532 33.2171 91.8091 33.1362C90.9651 33.0554 90.2267 32.7702 89.5942 32.2808C88.9629 31.7942 88.4742 31.1527 88.1283 30.3563C87.7811 29.5571 87.6466 28.76 87.7249 27.9653C87.8031 27.1706 88.0992 26.4378 88.6134 25.767C89.1317 25.0978 89.8788 24.5512 90.8547 24.1273C91.8336 23.7021 92.7444 23.5285 93.5872 23.6065C94.4313 23.6874 95.169 23.9711 95.8003 24.4576C96.4316 24.9442 96.9209 25.5871 97.268 26.3864C97.614 27.1828 97.7493 27.9777 97.674 28.7712C97.5999 29.5676 97.3044 30.3018 96.7873 30.9739C96.2703 31.646 95.5224 32.1946 94.5435 32.6198ZM93.5888 30.4217C94.168 30.1702 94.6215 29.875 94.9495 29.5364C95.2787 29.2006 95.4794 28.8346 95.5517 28.4383C95.6252 28.0449 95.5689 27.6339 95.3828 27.2053C95.1979 26.7796 94.9359 26.4579 94.597 26.2402C94.258 26.0226 93.8529 25.918 93.3815 25.9265C92.9114 25.9379 92.3868 26.0694 91.8076 26.321C91.2284 26.5726 90.7742 26.8663 90.445 27.202C90.117 27.5407 89.9169 27.9082 89.8447 28.3045C89.7724 28.7007 89.8287 29.1117 90.0136 29.5375C90.1998 29.9661 90.4617 30.2877 90.7994 30.5025C91.1384 30.7202 91.5429 30.8233 92.013 30.8119C92.4843 30.8034 93.0096 30.6733 93.5888 30.4217Z" fill="white"/>
<path d="M90.4947 36.7188L99.7195 32.6016L100.072 35.1681L93.9749 37.4834L93.9859 37.5632L100.51 38.354L100.798 40.4466L94.7147 42.9702L94.7257 43.05L101.236 43.6371L101.588 46.1989L91.5956 44.728L91.288 42.4899L96.8774 39.9576L96.8671 39.8825L90.8017 38.9521L90.4947 36.7188Z" fill="white"/>
<path d="M52.8368 73.7666C53.4226 74.3524 54.3723 74.3524 54.9581 73.7666L64.5041 64.2207C65.0898 63.6349 65.0898 62.6851 64.5041 62.0993C63.9183 61.5136 62.9685 61.5136 62.3827 62.0993L53.8975 70.5846L45.4122 62.0993C44.8264 61.5136 43.8766 61.5136 43.2909 62.0993C42.7051 62.6851 42.7051 63.6349 43.2909 64.2207L52.8368 73.7666ZM52.3975 36.1035L52.3975 72.706H55.3975L55.3975 36.1035H52.3975Z" fill="white"/>
</svg>
