<svg width="26" height="26" viewBox="0 0 26 26" fill="none" xmlns="http://www.w3.org/2000/svg">
<path fill-rule="evenodd" clip-rule="evenodd" d="M13 23.4C18.7438 23.4 23.4 18.7438 23.4 13C23.4 7.25624 18.7438 2.6 13 2.6C7.25624 2.6 2.6 7.25624 2.6 13C2.6 18.7438 7.25624 23.4 13 23.4ZM13 25C19.6274 25 25 19.6274 25 13C25 6.37258 19.6274 1 13 1C6.37258 1 1 6.37258 1 13C1 19.6274 6.37258 25 13 25Z" fill="white"/>
<path fill-rule="evenodd" clip-rule="evenodd" d="M19.8243 13.4243C20.0586 13.1899 20.0586 12.8101 19.8243 12.5757L15.0243 7.77574C14.79 7.54142 14.4101 7.54142 14.1757 7.77574C13.9414 8.01005 13.9414 8.38995 14.1757 8.62426L17.9515 12.4H6.6C6.26863 12.4 6 12.6686 6 13C6 13.3314 6.26863 13.6 6.6 13.6H17.9515L14.1757 17.3757C13.9414 17.6101 13.9414 17.99 14.1757 18.2243C14.4101 18.4586 14.79 18.4586 15.0243 18.2243L19.8243 13.4243Z" fill="white"/>
<path d="M19.8243 12.5757L20.1778 12.2222L20.1778 12.2222L19.8243 12.5757ZM19.8243 13.4243L20.1778 13.7778L20.1778 13.7778L19.8243 13.4243ZM15.0243 7.77574L14.6707 8.12929L14.6707 8.12929L15.0243 7.77574ZM14.1757 7.77574L14.5293 8.12929L14.5293 8.12929L14.1757 7.77574ZM14.1757 8.62426L14.5293 8.27071L14.5293 8.27071L14.1757 8.62426ZM17.9515 12.4V12.9C18.1537 12.9 18.336 12.7782 18.4134 12.5913C18.4908 12.4045 18.448 12.1894 18.305 12.0464L17.9515 12.4ZM17.9515 13.6L18.305 13.9536C18.448 13.8106 18.4908 13.5955 18.4134 13.4087C18.336 13.2218 18.1537 13.1 17.9515 13.1V13.6ZM14.1757 17.3757L13.8222 17.0222L13.8222 17.0222L14.1757 17.3757ZM14.1757 18.2243L13.8222 18.5778L13.8222 18.5778L14.1757 18.2243ZM15.0243 18.2243L15.3778 18.5778L15.3778 18.5778L15.0243 18.2243ZM22.9 13C22.9 18.4676 18.4676 22.9 13 22.9V23.9C19.0199 23.9 23.9 19.0199 23.9 13H22.9ZM13 3.1C18.4676 3.1 22.9 7.53238 22.9 13H23.9C23.9 6.9801 19.0199 2.1 13 2.1V3.1ZM3.1 13C3.1 7.53238 7.53238 3.1 13 3.1V2.1C6.9801 2.1 2.1 6.9801 2.1 13H3.1ZM13 22.9C7.53238 22.9 3.1 18.4676 3.1 13H2.1C2.1 19.0199 6.9801 23.9 13 23.9V22.9ZM24.5 13C24.5 19.3513 19.3513 24.5 13 24.5V25.5C19.9036 25.5 25.5 19.9036 25.5 13H24.5ZM13 1.5C19.3513 1.5 24.5 6.64873 24.5 13H25.5C25.5 6.09644 19.9036 0.5 13 0.5V1.5ZM1.5 13C1.5 6.64873 6.64873 1.5 13 1.5V0.5C6.09644 0.5 0.5 6.09644 0.5 13H1.5ZM13 24.5C6.64873 24.5 1.5 19.3513 1.5 13H0.5C0.5 19.9036 6.09644 25.5 13 25.5V24.5ZM19.4707 12.9293C19.5098 12.9683 19.5098 13.0317 19.4707 13.0707L20.1778 13.7778C20.6074 13.3482 20.6074 12.6518 20.1778 12.2222L19.4707 12.9293ZM14.6707 8.12929L19.4707 12.9293L20.1778 12.2222L15.3778 7.42218L14.6707 8.12929ZM14.5293 8.12929C14.5683 8.09024 14.6317 8.09024 14.6707 8.12929L15.3778 7.42218C14.9482 6.99261 14.2518 6.99261 13.8222 7.42218L14.5293 8.12929ZM14.5293 8.27071C14.4902 8.23166 14.4902 8.16834 14.5293 8.12929L13.8222 7.42218C13.3926 7.85176 13.3926 8.54824 13.8222 8.97782L14.5293 8.27071ZM18.305 12.0464L14.5293 8.27071L13.8222 8.97782L17.5979 12.7536L18.305 12.0464ZM6.6 12.9H17.9515V11.9H6.6V12.9ZM6.5 13C6.5 12.9448 6.54477 12.9 6.6 12.9V11.9C5.99249 11.9 5.5 12.3925 5.5 13H6.5ZM6.6 13.1C6.54477 13.1 6.5 13.0552 6.5 13H5.5C5.5 13.6075 5.99249 14.1 6.6 14.1V13.1ZM17.9515 13.1H6.6V14.1H17.9515V13.1ZM14.5293 17.7293L18.305 13.9536L17.5979 13.2464L13.8222 17.0222L14.5293 17.7293ZM14.5293 17.8707C14.4902 17.8317 14.4902 17.7683 14.5293 17.7293L13.8222 17.0222C13.3926 17.4518 13.3926 18.1482 13.8222 18.5778L14.5293 17.8707ZM14.6707 17.8707C14.6317 17.9098 14.5683 17.9098 14.5293 17.8707L13.8222 18.5778C14.2518 19.0074 14.9482 19.0074 15.3778 18.5778L14.6707 17.8707ZM19.4707 13.0707L14.6707 17.8707L15.3778 18.5778L20.1778 13.7778L19.4707 13.0707Z" fill="white"/>
</svg>
