<svg width="122" height="205" viewBox="0 0 122 205" fill="none" xmlns="http://www.w3.org/2000/svg">
<circle cx="11" cy="2.5" r="2.5" fill="#D9D9D9"/>
<circle cx="31" cy="2.5" r="2.5" fill="#D9D9D9"/>
<circle cx="51" cy="2.5" r="2.5" fill="#D9D9D9"/>
<circle cx="71" cy="2.5" r="2.5" fill="#D9D9D9"/>
<circle cx="91" cy="2.5" r="2.5" fill="#D9D9D9"/>
<circle cx="111" cy="2.5" r="2.5" fill="#D9D9D9"/>
<circle cx="11" cy="22.5" r="2.5" fill="#D9D9D9"/>
<circle cx="31" cy="22.5" r="2.5" fill="#D9D9D9"/>
<circle cx="51" cy="22.5" r="2.5" fill="#D9D9D9"/>
<circle cx="71" cy="22.5" r="2.5" fill="#D9D9D9"/>
<circle cx="91" cy="22.5" r="2.5" fill="#D9D9D9"/>
<circle cx="111" cy="22.5" r="2.5" fill="#D9D9D9"/>
<circle cx="11" cy="42.5" r="2.5" fill="#D9D9D9"/>
<circle cx="31" cy="42.5" r="2.5" fill="#D9D9D9"/>
<circle cx="51" cy="42.5" r="2.5" fill="#D9D9D9"/>
<circle cx="71" cy="42.5" r="2.5" fill="#D9D9D9"/>
<circle cx="91" cy="42.5" r="2.5" fill="#D9D9D9"/>
<circle cx="111" cy="42.5" r="2.5" fill="#D9D9D9"/>
<circle cx="11" cy="62.5" r="2.5" fill="#D9D9D9"/>
<circle cx="31" cy="62.5" r="2.5" fill="#D9D9D9"/>
<circle cx="51" cy="62.5" r="2.5" fill="#D9D9D9"/>
<circle cx="71" cy="62.5" r="2.5" fill="#D9D9D9"/>
<circle cx="91" cy="62.5" r="2.5" fill="#D9D9D9"/>
<circle cx="111" cy="62.5" r="2.5" fill="#D9D9D9"/>
<circle cx="11" cy="82.5" r="2.5" fill="#D9D9D9"/>
<circle cx="31" cy="82.5" r="2.5" fill="#D9D9D9"/>
<circle cx="51" cy="82.5" r="2.5" fill="#D9D9D9"/>
<circle cx="71" cy="82.5" r="2.5" fill="#D9D9D9"/>
<circle cx="91" cy="82.5" r="2.5" fill="#D9D9D9"/>
<circle cx="111" cy="82.5" r="2.5" fill="#D9D9D9"/>
<circle cx="11" cy="102.5" r="2.5" fill="#D9D9D9"/>
<circle cx="31" cy="102.5" r="2.5" fill="#D9D9D9"/>
<circle cx="51" cy="102.5" r="2.5" fill="#D9D9D9"/>
<circle cx="71" cy="102.5" r="2.5" fill="#D9D9D9"/>
<circle cx="91" cy="102.5" r="2.5" fill="#D9D9D9"/>
<circle cx="111" cy="102.5" r="2.5" fill="#D9D9D9"/>
<circle cx="11" cy="122.5" r="2.5" fill="#D9D9D9"/>
<circle cx="31" cy="122.5" r="2.5" fill="#D9D9D9"/>
<circle cx="51" cy="122.5" r="2.5" fill="#D9D9D9"/>
<circle cx="71" cy="122.5" r="2.5" fill="#D9D9D9"/>
<circle cx="91" cy="122.5" r="2.5" fill="#D9D9D9"/>
<circle cx="111" cy="122.5" r="2.5" fill="#D9D9D9"/>
<circle cx="11" cy="142.5" r="2.5" fill="#D9D9D9"/>
<circle cx="31" cy="142.5" r="2.5" fill="#D9D9D9"/>
<circle cx="51" cy="142.5" r="2.5" fill="#D9D9D9"/>
<circle cx="71" cy="142.5" r="2.5" fill="#D9D9D9"/>
<circle cx="91" cy="142.5" r="2.5" fill="#D9D9D9"/>
<circle cx="111" cy="142.5" r="2.5" fill="#D9D9D9"/>
<circle cx="11" cy="162.5" r="2.5" fill="#D9D9D9"/>
<circle cx="31" cy="162.5" r="2.5" fill="#D9D9D9"/>
<circle cx="51" cy="162.5" r="2.5" fill="#D9D9D9"/>
<circle cx="71" cy="162.5" r="2.5" fill="#D9D9D9"/>
<circle cx="91" cy="162.5" r="2.5" fill="#D9D9D9"/>
<circle cx="111" cy="162.5" r="2.5" fill="#D9D9D9"/>
<circle cx="11" cy="182.5" r="2.5" fill="#D9D9D9"/>
<circle cx="31" cy="182.5" r="2.5" fill="#D9D9D9"/>
<circle cx="51" cy="182.5" r="2.5" fill="#D9D9D9"/>
<circle cx="71" cy="182.5" r="2.5" fill="#D9D9D9"/>
<circle cx="91" cy="182.5" r="2.5" fill="#D9D9D9"/>
<circle cx="111" cy="182.5" r="2.5" fill="#D9D9D9"/>
<circle cx="11" cy="202.5" r="2.5" fill="#D9D9D9"/>
<circle cx="31" cy="202.5" r="2.5" fill="#D9D9D9"/>
<circle cx="51" cy="202.5" r="2.5" fill="#D9D9D9"/>
<circle cx="71" cy="202.5" r="2.5" fill="#D9D9D9"/>
<circle cx="91" cy="202.5" r="2.5" fill="#D9D9D9"/>
<circle cx="111" cy="202.5" r="2.5" fill="#D9D9D9"/>
</svg>
