<svg id="visual" viewBox="0 0 900 600" width="900" height="600" xmlns="http://www.w3.org/2000/svg" xmlns:xlink="http://www.w3.org/1999/xlink" version="1.1"><rect x="0" y="0" width="900" height="600" fill="#003747"></rect><defs><linearGradient id="grad1_0" x1="33.3%" y1="0%" x2="100%" y2="100%"><stop offset="20%" stop-color="#87a5b6" stop-opacity="1"></stop><stop offset="80%" stop-color="#87a5b6" stop-opacity="1"></stop></linearGradient></defs><defs><linearGradient id="grad1_1" x1="33.3%" y1="0%" x2="100%" y2="100%"><stop offset="20%" stop-color="#87a5b6" stop-opacity="1"></stop><stop offset="80%" stop-color="#7594a5" stop-opacity="1"></stop></linearGradient></defs><defs><linearGradient id="grad1_2" x1="33.3%" y1="0%" x2="100%" y2="100%"><stop offset="20%" stop-color="#638495" stop-opacity="1"></stop><stop offset="80%" stop-color="#7594a5" stop-opacity="1"></stop></linearGradient></defs><defs><linearGradient id="grad1_3" x1="33.3%" y1="0%" x2="100%" y2="100%"><stop offset="20%" stop-color="#638495" stop-opacity="1"></stop><stop offset="80%" stop-color="#517384" stop-opacity="1"></stop></linearGradient></defs><defs><linearGradient id="grad1_4" x1="33.3%" y1="0%" x2="100%" y2="100%"><stop offset="20%" stop-color="#3f6474" stop-opacity="1"></stop><stop offset="80%" stop-color="#517384" stop-opacity="1"></stop></linearGradient></defs><defs><linearGradient id="grad1_5" x1="33.3%" y1="0%" x2="100%" y2="100%"><stop offset="20%" stop-color="#3f6474" stop-opacity="1"></stop><stop offset="80%" stop-color="#2d5465" stop-opacity="1"></stop></linearGradient></defs><defs><linearGradient id="grad1_6" x1="33.3%" y1="0%" x2="100%" y2="100%"><stop offset="20%" stop-color="#194556" stop-opacity="1"></stop><stop offset="80%" stop-color="#2d5465" stop-opacity="1"></stop></linearGradient></defs><defs><linearGradient id="grad1_7" x1="33.3%" y1="0%" x2="100%" y2="100%"><stop offset="20%" stop-color="#194556" stop-opacity="1"></stop><stop offset="80%" stop-color="#003747" stop-opacity="1"></stop></linearGradient></defs><defs><linearGradient id="grad2_0" x1="0%" y1="0%" x2="66.7%" y2="100%"><stop offset="20%" stop-color="#87a5b6" stop-opacity="1"></stop><stop offset="80%" stop-color="#87a5b6" stop-opacity="1"></stop></linearGradient></defs><defs><linearGradient id="grad2_1" x1="0%" y1="0%" x2="66.7%" y2="100%"><stop offset="20%" stop-color="#7594a5" stop-opacity="1"></stop><stop offset="80%" stop-color="#87a5b6" stop-opacity="1"></stop></linearGradient></defs><defs><linearGradient id="grad2_2" x1="0%" y1="0%" x2="66.7%" y2="100%"><stop offset="20%" stop-color="#7594a5" stop-opacity="1"></stop><stop offset="80%" stop-color="#638495" stop-opacity="1"></stop></linearGradient></defs><defs><linearGradient id="grad2_3" x1="0%" y1="0%" x2="66.7%" y2="100%"><stop offset="20%" stop-color="#517384" stop-opacity="1"></stop><stop offset="80%" stop-color="#638495" stop-opacity="1"></stop></linearGradient></defs><defs><linearGradient id="grad2_4" x1="0%" y1="0%" x2="66.7%" y2="100%"><stop offset="20%" stop-color="#517384" stop-opacity="1"></stop><stop offset="80%" stop-color="#3f6474" stop-opacity="1"></stop></linearGradient></defs><defs><linearGradient id="grad2_5" x1="0%" y1="0%" x2="66.7%" y2="100%"><stop offset="20%" stop-color="#2d5465" stop-opacity="1"></stop><stop offset="80%" stop-color="#3f6474" stop-opacity="1"></stop></linearGradient></defs><defs><linearGradient id="grad2_6" x1="0%" y1="0%" x2="66.7%" y2="100%"><stop offset="20%" stop-color="#2d5465" stop-opacity="1"></stop><stop offset="80%" stop-color="#194556" stop-opacity="1"></stop></linearGradient></defs><defs><linearGradient id="grad2_7" x1="0%" y1="0%" x2="66.7%" y2="100%"><stop offset="20%" stop-color="#003747" stop-opacity="1"></stop><stop offset="80%" stop-color="#194556" stop-opacity="1"></stop></linearGradient></defs><g transform="translate(900, 0)"><path d="M0 540.8C-52.5 505.7 -105 470.7 -141.2 434.6C-177.5 398.6 -197.5 361.6 -253.9 349.5C-310.3 337.4 -403.1 350.1 -437.5 317.9C-472 285.7 -448.1 208.5 -455.6 148C-463 87.5 -501.9 43.8 -540.8 0L0 0Z" fill="#0e3e4e"></path><path d="M0 473.2C-45.9 442.5 -91.8 411.8 -123.6 380.3C-155.3 348.8 -172.8 316.4 -222.2 305.8C-271.5 295.2 -352.7 306.3 -382.8 278.2C-413 250 -392.1 182.4 -398.6 129.5C-405.2 76.6 -439.2 38.3 -473.2 0L0 0Z" fill="#234d5d"></path><path d="M0 405.6C-39.4 379.3 -78.7 353 -105.9 326C-133.1 298.9 -148.1 271.2 -190.4 262.1C-232.7 253 -302.3 262.6 -328.2 238.4C-354 214.3 -336 156.4 -341.7 111C-347.3 65.7 -376.5 32.8 -405.6 0L0 0Z" fill="#365c6d"></path><path d="M0 338C-32.8 316.1 -65.6 294.2 -88.3 271.6C-110.9 249.1 -123.4 226 -158.7 218.4C-194 210.9 -251.9 218.8 -273.5 198.7C-295 178.5 -280 130.3 -284.7 92.5C-289.4 54.7 -313.7 27.4 -338 0L0 0Z" fill="#486b7c"></path><path d="M0 270.4C-26.2 252.9 -52.5 235.3 -70.6 217.3C-88.7 199.3 -98.8 180.8 -127 174.7C-155.2 168.7 -201.6 175.1 -218.8 158.9C-236 142.8 -224 104.2 -227.8 74C-231.5 43.8 -251 21.9 -270.4 0L0 0Z" fill="#5a7b8c"></path><path d="M0 202.8C-19.7 189.7 -39.4 176.5 -53 163C-66.6 149.5 -74.1 135.6 -95.2 131.1C-116.4 126.5 -151.2 131.3 -164.1 119.2C-177 107.1 -168 78.2 -170.8 55.5C-173.6 32.8 -188.2 16.4 -202.8 0L0 0Z" fill="#6c8c9d"></path><path d="M0 135.2C-13.1 126.4 -26.2 117.7 -35.3 108.7C-44.4 99.6 -49.4 90.4 -63.5 87.4C-77.6 84.3 -100.8 87.5 -109.4 79.5C-118 71.4 -112 52.1 -113.9 37C-115.8 21.9 -125.5 10.9 -135.2 0L0 0Z" fill="#7e9dae"></path><path d="M0 67.6C-6.6 63.2 -13.1 58.8 -17.7 54.3C-22.2 49.8 -24.7 45.2 -31.7 43.7C-38.8 42.2 -50.4 43.8 -54.7 39.7C-59 35.7 -56 26.1 -56.9 18.5C-57.9 10.9 -62.7 5.5 -67.6 0L0 0Z" fill="#87a5b6"></path></g><g transform="translate(0, 600)"><path d="M0 -540.8C53.3 -521.7 106.5 -502.6 157 -483.1C207.4 -463.7 255 -443.9 303.9 -418.3C352.8 -392.6 402.9 -361.2 437.5 -317.9C472.2 -274.6 491.3 -219.4 506 -164.4C520.6 -109.4 530.7 -54.7 540.8 0L0 0Z" fill="#0e3e4e"></path><path d="M0 -473.2C46.6 -456.5 93.2 -439.8 137.4 -422.7C181.5 -405.7 223.1 -388.4 265.9 -366C308.7 -343.6 352.5 -316.1 382.8 -278.2C413.2 -240.3 429.9 -191.9 442.7 -143.8C455.5 -95.8 464.4 -47.9 473.2 0L0 0Z" fill="#234d5d"></path><path d="M0 -405.6C40 -391.3 79.9 -376.9 117.7 -362.4C155.6 -347.8 191.3 -332.9 227.9 -313.7C264.6 -294.5 302.2 -270.9 328.2 -238.4C354.1 -205.9 368.5 -164.5 379.5 -123.3C390.4 -82.1 398 -41 405.6 0L0 0Z" fill="#365c6d"></path><path d="M0 -338C33.3 -326.1 66.6 -314.1 98.1 -302C129.6 -289.8 159.4 -277.4 189.9 -261.4C220.5 -245.4 251.8 -225.8 273.5 -198.7C295.1 -171.6 307.1 -137.1 316.2 -102.7C325.4 -68.4 331.7 -34.2 338 0L0 0Z" fill="#486b7c"></path><path d="M0 -270.4C26.6 -260.9 53.3 -251.3 78.5 -241.6C103.7 -231.8 127.5 -221.9 151.9 -209.1C176.4 -196.3 201.4 -180.6 218.8 -158.9C236.1 -137.3 245.7 -109.7 253 -82.2C260.3 -54.7 265.4 -27.4 270.4 0L0 0Z" fill="#5a7b8c"></path><path d="M0 -202.8C20 -195.6 40 -188.5 58.9 -181.2C77.8 -173.9 95.6 -166.5 114 -156.8C132.3 -147.2 151.1 -135.5 164.1 -119.2C177.1 -103 184.2 -82.3 189.7 -61.6C195.2 -41 199 -20.5 202.8 0L0 0Z" fill="#6c8c9d"></path><path d="M0 -135.2C13.3 -130.4 26.6 -125.6 39.2 -120.8C51.9 -115.9 63.8 -111 76 -104.6C88.2 -98.2 100.7 -90.3 109.4 -79.5C118 -68.6 122.8 -54.8 126.5 -41.1C130.1 -27.4 132.7 -13.7 135.2 0L0 0Z" fill="#7e9dae"></path><path d="M0 -67.6C6.7 -65.2 13.3 -62.8 19.6 -60.4C25.9 -58 31.9 -55.5 38 -52.3C44.1 -49.1 50.4 -45.2 54.7 -39.7C59 -34.3 61.4 -27.4 63.2 -20.5C65.1 -13.7 66.3 -6.8 67.6 0L0 0Z" fill="#87a5b6"></path></g></svg>