<svg width="40" height="40" viewBox="0 0 56 57" fill="none" xmlns="http://www.w3.org/2000/svg">
<circle cx="28.0407" cy="28.6735" r="27.8571" fill="black" fill-opacity="0.8"/>
<path d="M15.1712 36.5086C14.223 37.0832 13.7184 38.5978 13.9885 40.0453L15.2119 46.6114C15.4566 47.9097 16.262 48.8125 17.1796 48.8125C29.7908 48.8125 40.0164 33.8449 40.0164 15.3854C40.0164 14.0423 39.3996 12.8634 38.5126 12.5053L34.0268 10.7146C33.0379 10.3191 32.0031 11.0578 31.6106 12.4456L29.5716 19.6086C29.225 20.8248 29.4646 22.235 30.1629 23.0632L32.676 26.0776C30.9785 31.3304 28.0729 35.5834 24.4843 38.0681L22.43 34.3896C21.8591 33.3674 20.9008 33.0167 20.0699 33.5241L15.1762 36.5086H15.1712Z" fill="white"/>
</svg>
