<svg width="64" height="20" viewBox="0 0 64 20" fill="none" xmlns="http://www.w3.org/2000/svg">
<path fill-rule="evenodd" clip-rule="evenodd" d="M10 18.6667C5.21353 18.6667 1.33333 14.7865 1.33333 10C1.33333 5.21353 5.21353 1.33333 10 1.33333C14.7865 1.33333 18.6667 5.21353 18.6667 10C18.6667 14.7865 14.7865 18.6667 10 18.6667ZM10 20C4.47715 20 0 15.5228 0 10C0 4.47715 4.47715 0 10 0C15.5228 0 20 4.47715 20 10C20 15.5228 15.5228 20 10 20Z" fill="#878787"/>
<path fill-rule="evenodd" clip-rule="evenodd" d="M4.31311 10.3536C4.11785 10.1583 4.11785 9.84171 4.31311 9.64645L8.31311 5.64645C8.50838 5.45118 8.82496 5.45118 9.02022 5.64645C9.21548 5.84171 9.21548 6.15829 9.02022 6.35355L5.87377 9.5H15.3333C15.6095 9.5 15.8333 9.72386 15.8333 10C15.8333 10.2761 15.6095 10.5 15.3333 10.5H5.87377L9.02022 13.6464C9.21548 13.8417 9.21548 14.1583 9.02022 14.3536C8.82496 14.5488 8.50838 14.5488 8.31311 14.3536L4.31311 10.3536Z" fill="#878787"/>
<path fill-rule="evenodd" clip-rule="evenodd" d="M54 18.6667C58.7865 18.6667 62.6667 14.7865 62.6667 10C62.6667 5.21353 58.7865 1.33333 54 1.33333C49.2135 1.33333 45.3333 5.21353 45.3333 10C45.3333 14.7865 49.2135 18.6667 54 18.6667ZM54 20C59.5228 20 64 15.5228 64 10C64 4.47715 59.5228 0 54 0C48.4772 0 44 4.47715 44 10C44 15.5228 48.4772 20 54 20Z" fill="#A3EDFF"/>
<path fill-rule="evenodd" clip-rule="evenodd" d="M59.6869 10.3536C59.8821 10.1583 59.8821 9.84171 59.6869 9.64645L55.6869 5.64645C55.4916 5.45118 55.175 5.45118 54.9798 5.64645C54.7845 5.84171 54.7845 6.15829 54.9798 6.35355L58.1262 9.5H48.6667C48.3905 9.5 48.1667 9.72386 48.1667 10C48.1667 10.2761 48.3905 10.5 48.6667 10.5H58.1262L54.9798 13.6464C54.7845 13.8417 54.7845 14.1583 54.9798 14.3536C55.175 14.5488 55.4916 14.5488 55.6869 14.3536L59.6869 10.3536Z" fill="#A3EDFF"/>
</svg>
