<svg width="246" height="138" viewBox="0 0 246 138" fill="none" xmlns="http://www.w3.org/2000/svg">
<path d="M146.381 1.74107C140.842 3.23834 136.397 4.80323 130.877 7.23893C94.9905 23.0716 58.1292 40.0365 25.3778 61.7646C15.5203 68.3043 5.56707 80.7451 2.64616 92.741C-3.68299 118.734 38.8961 129.1 56.4153 131.137C92.2074 135.299 126.483 119.531 155.918 100.842C176.29 87.9076 191.646 72.1515 208.205 54.9499C213.031 49.9369 219.31 45.3057 220.769 38.0923C226.009 12.1951 169.439 9.86135 156.783 11.2143C132.608 13.7987 108.368 20.5278 86.5277 31.2508C64.781 41.9278 53.6965 53.967 39.8159 72.6301C27.3701 89.3642 18.0274 114.181 41.5759 126.523C64.9333 138.764 93.8924 131.801 117.678 124.248C145.924 115.28 175.674 96.8239 197.92 77.3343C206.649 69.6862 233.415 50.7629 219.989 35.6894C188.426 0.25311 127.138 23.7845 91.6731 41.0996C73.6678 49.8904 57.5637 62.7025 41.7252 74.8586C34.6869 80.2606 22.8907 91.8999 23.0752 101.595C23.4651 122.087 38.2028 131.06 56.7183 134.192C92.4359 140.234 125.427 126 154.996 107.103C169.306 97.9582 209.805 73.7888 201.852 50.7861C183.474 -2.37166 104.512 44.1426 77.9211 64.6823C63.7822 75.6035 26.6583 105.262 48.7486 125.499C68.8095 143.877 109.776 130.567 131.764 124.623C162.91 116.204 193.842 101.601 219.145 81.3988C227.829 74.4653 234.943 63.6405 243.852 57.73" stroke="white" stroke-width="3" stroke-linecap="round"/>
</svg>
