<svg width="108" height="108" viewBox="0 0 108 108" fill="none" xmlns="http://www.w3.org/2000/svg">
<rect y="108" width="108" height="107.795" rx="53.8974" transform="rotate(-90 0 108)" fill="white"/>
<path d="M96.4426 66.4252L96.765 64.0793C97.0102 64.0811 97.2364 64.0468 97.4437 63.9765C97.6509 63.9062 97.8343 63.8008 97.9939 63.6601C98.1534 63.5195 98.2842 63.3447 98.3863 63.1356C98.491 62.9301 98.5614 62.696 98.5976 62.4332C98.6616 61.9672 98.6027 61.5495 98.4208 61.1803C98.2384 60.8142 97.9439 60.5108 97.5372 60.2701C97.13 60.0325 96.6199 59.8715 96.0068 59.7872C95.3687 59.6995 94.8214 59.7167 94.3648 59.8388C93.9109 59.9645 93.5517 60.178 93.2871 60.4795C93.0253 60.7845 92.863 61.1654 92.8002 61.6221C92.765 61.8786 92.7658 62.1161 92.8027 62.3347C92.8391 62.5564 92.9089 62.7557 93.0121 62.9324C93.118 63.1127 93.2546 63.2669 93.4218 63.3951C93.5918 63.5268 93.7897 63.6289 94.0156 63.7014L93.679 66.0454C93.2592 65.9463 92.857 65.7651 92.4725 65.5019C92.0876 65.2418 91.7491 64.9101 91.4572 64.5066C91.1684 64.1036 90.9591 63.6318 90.8295 63.0913C90.6994 62.554 90.6797 61.9553 90.7704 61.2953C90.8899 60.4257 91.1878 59.673 91.6639 59.0373C92.1428 58.4052 92.7771 57.941 93.5668 57.6448C94.3565 57.3486 95.2784 57.2729 96.3325 57.4178C97.3898 57.5631 98.2582 57.888 98.9378 58.3926C99.6174 58.8971 100.101 59.5197 100.388 60.2603C100.675 61.0009 100.76 61.7982 100.642 62.6521C100.562 63.2339 100.407 63.7608 100.176 64.2326C99.949 64.7049 99.6546 65.1075 99.2934 65.4403C98.9352 65.7735 98.5164 66.0267 98.0368 66.1998C97.5573 66.3729 97.0259 66.448 96.4426 66.4252Z" fill="url(#paint0_linear_1187_2515)"/>
<path d="M90.3726 77.987C89.3938 77.5618 88.6459 77.0132 88.1288 76.3411C87.6118 75.669 87.3163 74.9348 87.2422 74.1384C87.1669 73.3449 87.3022 72.55 87.6481 71.7536C87.9953 70.9543 88.486 70.312 89.1202 69.8267C89.7544 69.3414 90.4921 69.0577 91.3333 68.9756C92.1761 68.8976 93.0855 69.0706 94.0614 69.4945C95.0403 69.9197 95.7888 70.4668 96.3071 71.136C96.8242 71.8081 97.1203 72.5409 97.1957 73.3344C97.271 74.1279 97.135 74.9242 96.7878 75.7235C96.4419 76.5199 95.9533 77.1614 95.322 77.6479C94.6894 78.1374 93.9511 78.4226 93.107 78.5034C92.2629 78.5843 91.3515 78.4121 90.3726 77.987ZM91.3274 75.7889C91.9066 76.0405 92.4319 76.1705 92.9032 76.1791C93.3733 76.1905 93.7778 76.0874 94.1168 75.8697C94.4545 75.6549 94.7164 75.3332 94.9026 74.9046C95.0875 74.4789 95.1438 74.0679 95.0715 73.6716C94.9992 73.2754 94.7991 72.9079 94.4712 72.5692C94.142 72.2335 93.6878 71.9398 93.1086 71.6882C92.5294 71.4366 92.0047 71.3051 91.5346 71.2937C91.0633 71.2852 90.6582 71.3898 90.3192 71.6074C89.9802 71.8251 89.7183 72.1468 89.5334 72.5725C89.3472 73.0011 89.2909 73.4121 89.3644 73.8055C89.4367 74.2018 89.6375 74.5678 89.9667 74.9036C90.2946 75.2422 90.7482 75.5373 91.3274 75.7889Z" fill="url(#paint1_linear_1187_2515)"/>
<path d="M87.0896 90.1494L79.5656 84.0282L80.8209 82.4851L87.5993 83.0238L87.6382 82.9761L83.2957 79.4432L84.7752 77.6247L92.2992 83.7459L91.0259 85.3109L84.2818 84.7452L84.231 84.8076L88.5661 88.3345L87.0896 90.1494Z" fill="url(#paint2_linear_1187_2515)"/>
<path d="M82.3247 92.076L83.4227 93.6315L76.725 98.3592L75.6271 96.8037L78.0299 95.1077L73.5343 88.7389L75.4225 87.4061L79.9181 93.7748L82.3247 92.076Z" fill="url(#paint3_linear_1187_2515)"/>
<path d="M65.4399 93.0153L67.814 92.1716L67.9785 102.407L65.0376 103.452L58.7058 95.4086L61.0799 94.5649L65.6562 100.639L65.7276 100.613L65.4399 93.0153ZM67.0351 96.4996L62.0726 98.2632L61.4763 96.5853L66.4387 94.8217L67.0351 96.4996Z" fill="url(#paint4_linear_1187_2515)"/>
<path d="M48.7372 102.213L51.0997 102.052C51.1478 102.292 51.2273 102.507 51.3384 102.695C51.4494 102.884 51.5899 103.042 51.7601 103.17C51.9302 103.297 52.128 103.39 52.3534 103.447C52.576 103.508 52.8195 103.529 53.0841 103.511C53.5535 103.479 53.9504 103.336 54.2749 103.083C54.5962 102.83 54.8333 102.48 54.9863 102.033C55.1361 101.586 55.1899 101.054 55.1477 100.436C55.1037 99.7935 54.9755 99.2611 54.7631 98.8389C54.5477 98.4201 54.2656 98.1118 53.9166 97.9141C53.5646 97.7199 53.1587 97.6384 52.6988 97.6699C52.4405 97.6876 52.2081 97.7367 52.0016 97.8173C51.7919 97.8981 51.6111 98.007 51.459 98.144C51.3041 98.2843 51.1809 98.4494 51.0894 98.6392C50.995 98.8324 50.9353 99.0469 50.9103 99.2828L48.5468 99.4303C48.5585 98.9991 48.654 98.5684 48.8335 98.1384C49.0098 97.7086 49.2658 97.3097 49.6014 96.9418C49.9372 96.5771 50.3565 96.2762 50.8593 96.0393C51.359 95.8026 51.9412 95.6615 52.6058 95.616C53.4815 95.5561 54.279 95.6946 54.9983 96.0315C55.7147 96.3718 56.2982 96.8983 56.7489 97.6112C57.1996 98.3241 57.4612 99.2113 57.5338 100.273C57.6067 101.338 57.4652 102.254 57.1095 103.022C56.7538 103.79 56.2426 104.39 55.5758 104.822C54.9091 105.253 54.1458 105.499 53.2858 105.557C52.6999 105.598 52.1525 105.553 51.6436 105.423C51.1349 105.296 50.6809 105.09 50.2816 104.804C49.8825 104.521 49.5494 104.163 49.2823 103.728C49.0152 103.294 48.8335 102.789 48.7372 102.213Z" fill="url(#paint5_linear_1187_2515)"/>
<path d="M45.1563 103.496L44.7689 105.36L36.7423 103.692L37.1296 101.828L40.0092 102.426L41.5953 94.7938L43.8581 95.264L42.2721 102.897L45.1563 103.496Z" fill="url(#paint6_linear_1187_2515)"/>
<path d="M14.0374 88.0103L20.6578 80.9215L22.1115 82.2792L21.1115 89.0051L21.1565 89.0471L24.9775 84.9559L26.6908 86.556L20.0704 93.6447L18.5959 92.2676L19.6206 85.5778L19.5617 85.5229L15.7473 89.6072L14.0374 88.0103Z" fill="url(#paint7_linear_1187_2515)"/>
<path d="M9.87762 73.2394C10.7895 72.6849 11.669 72.3902 12.5162 72.3554C13.3635 72.3206 14.1337 72.5026 14.8271 72.9013C15.5187 73.2974 16.0901 73.8663 16.5413 74.6082C16.9941 75.3528 17.2358 76.1241 17.2666 76.922C17.2973 77.72 17.1037 78.4863 16.6857 79.2209C16.2633 79.9544 15.5976 80.5976 14.6885 81.1505C13.7766 81.705 12.8979 82.001 12.0523 82.0385C11.2051 82.0733 10.4356 81.8927 9.74395 81.4966C9.05227 81.1006 8.48004 80.5303 8.02726 79.7857C7.57611 79.0438 7.33382 78.2747 7.30039 77.4784C7.26532 76.6793 7.45813 75.9117 7.87883 75.1755C8.29952 74.4392 8.96579 73.7939 9.87762 73.2394ZM11.1228 75.287C10.5832 75.6151 10.1741 75.9692 9.8953 76.3494C9.61488 76.7268 9.46585 77.1168 9.44821 77.5192C9.42892 77.9189 9.54068 78.3185 9.78348 78.7177C10.0246 79.1143 10.3279 79.3973 10.6934 79.5668C11.0588 79.7363 11.4744 79.7847 11.9402 79.7121C12.4044 79.6368 12.9062 79.435 13.4458 79.1069C13.9853 78.7788 14.3953 78.426 14.6757 78.0486C14.9545 77.6684 15.1027 77.2771 15.1203 76.8747C15.138 76.4722 15.0262 76.0727 14.7851 75.6762C14.5423 75.2769 14.239 74.9939 13.8752 74.8271C13.5097 74.6576 13.0949 74.6105 12.6308 74.6859C12.165 74.7585 11.6623 74.9589 11.1228 75.287Z" fill="url(#paint8_linear_1187_2515)"/>
<path d="M13.3302 68.6284L4.75193 73.9633L4.05298 71.4688L9.77827 68.3448L9.75655 68.2673L3.18537 68.3722L2.61548 66.3383L8.29823 63.0098L8.27651 62.9323L1.7466 63.2372L1.04893 60.7472L11.149 60.8437L11.7585 63.0191L6.56593 66.2889L6.58637 66.3619L12.7219 66.4577L13.3302 68.6284Z" fill="url(#paint9_linear_1187_2515)"/>
<path d="M9.72916 36.4389L9.09028 38.7191C8.84765 38.6839 8.61889 38.687 8.40398 38.7285C8.18908 38.7699 7.99302 38.8494 7.8158 38.967C7.63858 39.0846 7.48519 39.24 7.35564 39.4332C7.22389 39.6225 7.12224 39.8449 7.05069 40.1003C6.92376 40.5533 6.92527 40.9751 7.05521 41.3656C7.18601 41.7531 7.43648 42.0938 7.80663 42.3877C8.17764 42.6785 8.66109 42.9074 9.25699 43.0744C9.87721 43.2482 10.4218 43.3057 10.8908 43.2469C11.3576 43.1842 11.7425 43.0216 12.0456 42.7589C12.3465 42.4924 12.5592 42.1372 12.6836 41.6933C12.7534 41.444 12.785 41.2085 12.7782 40.987C12.7723 40.7623 12.7302 40.5554 12.6521 40.3663C12.5717 40.1733 12.4574 40.0019 12.3092 39.8522C12.1588 39.6986 11.9766 39.5705 11.7627 39.4679L12.4153 37.1915C12.8177 37.3469 13.1914 37.5811 13.5365 37.8942C13.8825 38.2043 14.1726 38.579 14.4069 39.0185C14.6381 39.4571 14.7812 39.9529 14.836 40.5061C14.8918 41.0562 14.8298 41.652 14.65 42.2935C14.4132 43.1387 14.0156 43.8437 13.4573 44.4087C12.8968 44.9697 12.2052 45.3432 11.3826 45.5291C10.5599 45.7151 9.63629 45.6645 8.61171 45.3774C7.58409 45.0895 6.76799 44.6493 6.16341 44.057C5.55883 43.4646 5.16478 42.782 4.98127 42.0092C4.79776 41.2364 4.82229 40.435 5.05484 39.605C5.21329 39.0395 5.43885 38.5387 5.73154 38.1027C6.02119 37.6657 6.36762 37.307 6.77083 37.0265C7.171 36.7452 7.62041 36.5514 8.11906 36.4452C8.61772 36.339 9.15442 36.3369 9.72916 36.4389Z" fill="url(#paint10_linear_1187_2515)"/>
<path d="M17.3194 25.8114C18.2312 26.3659 18.8975 27.0113 19.3182 27.7475C19.7389 28.4837 19.9317 29.2514 19.8966 30.0504C19.8632 30.8467 19.6209 31.6158 19.1698 32.3577C18.717 33.1023 18.1434 33.6718 17.449 34.0662C16.7546 34.4606 15.9852 34.6412 15.1406 34.6081C14.2951 34.5705 13.4177 34.2754 12.5086 33.7225C11.5967 33.168 10.9296 32.524 10.5073 31.7905C10.0866 31.0542 9.89297 30.2879 9.9264 29.4916C9.95983 28.6953 10.2029 27.9248 10.6557 27.1802C11.1069 26.4384 11.6783 25.8694 12.37 25.4733C13.0633 25.0746 13.8336 24.8926 14.6808 24.9274C15.528 24.9623 16.4076 25.2569 17.3194 25.8114ZM16.0742 27.859C15.5347 27.5309 15.032 27.3305 14.5662 27.2579C14.1021 27.1826 13.6873 27.2297 13.3218 27.3991C12.958 27.5659 12.6547 27.8489 12.4119 28.2482C12.1708 28.6448 12.059 29.0443 12.0767 29.4467C12.0943 29.8492 12.2425 30.2404 12.5213 30.6206C12.8017 30.9981 13.2117 31.3509 13.7513 31.679C14.2908 32.0071 14.7926 32.2088 15.2568 32.2841C15.7226 32.3567 16.1382 32.3083 16.5036 32.1388C16.8691 31.9693 17.1724 31.6863 17.4135 31.2897C17.6563 30.8905 17.7681 30.491 17.7488 30.0912C17.7312 29.6888 17.5821 29.2989 17.3017 28.9214C17.0229 28.5412 16.6138 28.1871 16.0742 27.859Z" fill="url(#paint11_linear_1187_2515)"/>
<path d="M22.226 14.2096L28.8464 21.2983L27.3927 22.656L20.7508 21.1993L20.7058 21.2413L24.5267 25.3326L22.8134 26.9327L16.193 19.844L17.6675 18.4669L24.2718 19.9458L24.3306 19.8908L20.5161 15.8065L22.226 14.2096Z" fill="url(#paint12_linear_1187_2515)"/>
<path d="M27.2086 12.9492L26.3327 11.2588L33.6117 7.4871L34.4877 9.17754L31.8763 10.5306L35.4628 17.4522L33.4107 18.5155L29.8242 11.5939L27.2086 12.9492Z" fill="url(#paint13_linear_1187_2515)"/>
<path d="M44.0647 14.3178L41.5978 14.8305L42.8286 4.66802L45.8844 4.03302L51.062 12.8638L48.5951 13.3764L44.8884 6.73599L44.8143 6.75141L44.0647 14.3178ZM42.9588 10.6488L48.1152 9.57731L48.4775 11.3208L43.3211 12.3923L42.9588 10.6488Z" fill="url(#paint14_linear_1187_2515)"/>
<path d="M61.864 7.47887L59.5014 7.31727C59.4865 7.07257 59.4369 6.84922 59.3526 6.64724C59.2684 6.44526 59.1506 6.26948 58.9995 6.11989C58.8483 5.9703 58.6649 5.85174 58.4494 5.7642C58.2372 5.67373 57.9988 5.61945 57.7342 5.60135C57.2648 5.56925 56.8522 5.65653 56.4963 5.86322C56.1435 6.07011 55.8609 6.38466 55.6485 6.80687C55.4392 7.22929 55.3134 7.7492 55.2712 8.36661C55.2272 9.00921 55.2817 9.55411 55.4347 10.0013C55.591 10.4456 55.8286 10.7894 56.1474 11.0327C56.4696 11.2731 56.8606 11.4091 57.3206 11.4405C57.5789 11.4582 57.8158 11.4412 58.0314 11.3895C58.2501 11.338 58.4441 11.2547 58.6134 11.1397C58.786 11.0217 58.9305 10.875 59.047 10.6994C59.1668 10.5209 59.2552 10.3164 59.312 10.0861L61.6736 10.2619C61.6033 10.6875 61.45 11.1011 61.2137 11.5027C60.9805 11.9045 60.6726 12.2648 60.29 12.5836C59.9077 12.8992 59.4513 13.1402 58.9209 13.3064C58.3936 13.4729 57.7977 13.5334 57.133 13.488C56.2573 13.4281 55.4861 13.1823 54.8194 12.7505C54.156 12.3159 53.6497 11.7148 53.3002 10.9472C52.9508 10.1795 52.8124 9.26495 52.885 8.20339C52.9579 7.13868 53.2228 6.2501 53.6798 5.53764C54.1367 4.82518 54.7249 4.3005 55.4442 3.9636C56.1635 3.6267 56.9531 3.48766 57.813 3.54649C58.399 3.58656 58.9352 3.70552 59.4217 3.90337C59.9084 4.09806 60.3301 4.36426 60.6867 4.70197C61.0436 5.03653 61.3248 5.43712 61.5302 5.90373C61.7357 6.37034 61.8469 6.89539 61.864 7.47887Z" fill="url(#paint15_linear_1187_2515)"/>
<path d="M65.5874 6.69685L66.2249 4.90288L73.9497 7.64827L73.3121 9.44224L70.5409 8.45733L67.9303 15.8028L65.7525 15.0288L68.3631 7.68335L65.5874 6.69685Z" fill="url(#paint16_linear_1187_2515)"/>
<path d="M91.4345 18.4207L83.9105 24.5419L82.6551 22.9989L84.5617 16.4719L84.5228 16.4241L80.1803 19.957L78.7008 18.1384L86.2248 12.0172L87.4981 13.5823L85.572 20.0702L85.6228 20.1327L89.9579 16.6058L91.4345 18.4207Z" fill="url(#paint17_linear_1187_2515)"/>
<path d="M94.5435 32.6198C93.5647 33.045 92.6532 33.2171 91.8091 33.1362C90.9651 33.0554 90.2267 32.7702 89.5942 32.2808C88.9629 31.7942 88.4742 31.1527 88.1283 30.3563C87.7811 29.5571 87.6466 28.76 87.7249 27.9653C87.8031 27.1706 88.0992 26.4378 88.6134 25.767C89.1317 25.0978 89.8788 24.5512 90.8547 24.1273C91.8336 23.7021 92.7444 23.5285 93.5872 23.6065C94.4313 23.6874 95.169 23.9711 95.8003 24.4576C96.4316 24.9442 96.9209 25.5871 97.268 26.3864C97.614 27.1828 97.7493 27.9777 97.674 28.7712C97.5999 29.5676 97.3044 30.3018 96.7873 30.9739C96.2703 31.646 95.5224 32.1946 94.5435 32.6198ZM93.5888 30.4217C94.168 30.1702 94.6215 29.875 94.9495 29.5364C95.2787 29.2006 95.4794 28.8346 95.5517 28.4383C95.6252 28.0449 95.5689 27.6339 95.3828 27.2053C95.1979 26.7796 94.9359 26.4579 94.597 26.2402C94.258 26.0226 93.8529 25.918 93.3815 25.9265C92.9114 25.9379 92.3868 26.0694 91.8076 26.321C91.2284 26.5726 90.7742 26.8663 90.445 27.202C90.117 27.5407 89.9169 27.9082 89.8447 28.3045C89.7724 28.7007 89.8287 29.1117 90.0136 29.5375C90.1998 29.9661 90.4617 30.2877 90.7994 30.5025C91.1384 30.7202 91.5429 30.8233 92.013 30.8119C92.4843 30.8034 93.0096 30.6733 93.5888 30.4217Z" fill="url(#paint18_linear_1187_2515)"/>
<path d="M90.4947 36.7178L99.7195 32.6006L100.072 35.1671L93.9749 37.4824L93.9859 37.5622L100.51 38.353L100.798 40.4456L94.7147 42.9692L94.7257 43.049L101.236 43.6361L101.588 46.1979L91.5956 44.727L91.288 42.4889L96.8774 39.9566L96.8671 39.8815L90.8017 38.9512L90.4947 36.7178Z" fill="url(#paint19_linear_1187_2515)"/>
<path d="M52.8378 73.7666C53.4236 74.3524 54.3733 74.3524 54.9591 73.7666L64.505 64.2207C65.0908 63.6349 65.0908 62.6851 64.505 62.0993C63.9193 61.5136 62.9695 61.5136 62.3837 62.0993L53.8984 70.5846L45.4132 62.0993C44.8274 61.5136 43.8776 61.5136 43.2918 62.0993C42.706 62.6851 42.706 63.6349 43.2918 64.2207L52.8378 73.7666ZM52.3984 36.1035L52.3984 72.706H55.3984L55.3984 36.1035H52.3984Z" fill="#A3EDFF"/>
<defs>
<linearGradient id="paint0_linear_1187_2515" x1="103.802" y1="62.9292" x2="87.9509" y2="60.7506" gradientUnits="userSpaceOnUse">
<stop stop-color="#A3EDFF"/>
<stop offset="1" stop-color="#003747"/>
</linearGradient>
<linearGradient id="paint1_linear_1187_2515" x1="99.6916" y1="76.99" x2="85.0162" y2="70.6156" gradientUnits="userSpaceOnUse">
<stop stop-color="#A3EDFF"/>
<stop offset="1" stop-color="#003747"/>
</linearGradient>
<linearGradient id="paint2_linear_1187_2515" x1="92.2528" y1="89.0329" x2="79.8414" y2="78.9354" gradientUnits="userSpaceOnUse">
<stop stop-color="#A3EDFF"/>
<stop offset="1" stop-color="#003747"/>
</linearGradient>
<linearGradient id="paint3_linear_1187_2515" x1="81.9796" y1="98.69" x2="72.7527" y2="85.6185" gradientUnits="userSpaceOnUse">
<stop stop-color="#A3EDFF"/>
<stop offset="1" stop-color="#003747"/>
</linearGradient>
<linearGradient id="paint4_linear_1187_2515" x1="67.6144" y1="106.039" x2="62.2564" y2="90.9629" gradientUnits="userSpaceOnUse">
<stop stop-color="#A3EDFF"/>
<stop offset="1" stop-color="#003747"/>
</linearGradient>
<linearGradient id="paint5_linear_1187_2515" x1="53.6574" y1="108.707" x2="52.5655" y2="92.7447" gradientUnits="userSpaceOnUse">
<stop stop-color="#A3EDFF"/>
<stop offset="1" stop-color="#003747"/>
</linearGradient>
<linearGradient id="paint6_linear_1187_2515" x1="40.087" y1="107.758" x2="43.3423" y2="92.0928" gradientUnits="userSpaceOnUse">
<stop stop-color="#A3EDFF"/>
<stop offset="1" stop-color="#003747"/>
</linearGradient>
<linearGradient id="paint7_linear_1187_2515" x1="14.7989" y1="93.2376" x2="25.7198" y2="81.5442" gradientUnits="userSpaceOnUse">
<stop stop-color="#A3EDFF"/>
<stop offset="1" stop-color="#003747"/>
</linearGradient>
<linearGradient id="paint8_linear_1187_2515" x1="5.31807" y1="81.4276" x2="18.9888" y2="73.1143" gradientUnits="userSpaceOnUse">
<stop stop-color="#A3EDFF"/>
<stop offset="1" stop-color="#003747"/>
</linearGradient>
<linearGradient id="paint9_linear_1187_2515" x1="-0.277382" y1="68.2469" x2="15.1293" y2="63.9301" gradientUnits="userSpaceOnUse">
<stop stop-color="#A3EDFF"/>
<stop offset="1" stop-color="#003747"/>
</linearGradient>
<linearGradient id="paint10_linear_1187_2515" x1="1.9624" y1="38.9002" x2="17.3691" y2="43.217" gradientUnits="userSpaceOnUse">
<stop stop-color="#A3EDFF"/>
<stop offset="1" stop-color="#003747"/>
</linearGradient>
<linearGradient id="paint11_linear_1187_2515" x1="7.95146" y1="25.5302" x2="21.6222" y2="33.8435" gradientUnits="userSpaceOnUse">
<stop stop-color="#A3EDFF"/>
<stop offset="1" stop-color="#003747"/>
</linearGradient>
<linearGradient id="paint12_linear_1187_2515" x1="16.9589" y1="14.6126" x2="27.8797" y2="26.306" gradientUnits="userSpaceOnUse">
<stop stop-color="#A3EDFF"/>
<stop offset="1" stop-color="#003747"/>
</linearGradient>
<linearGradient id="paint13_linear_1187_2515" x1="28.4511" y1="6.44382" x2="35.8122" y2="20.65" gradientUnits="userSpaceOnUse">
<stop stop-color="#A3EDFF"/>
<stop offset="1" stop-color="#003747"/>
</linearGradient>
<linearGradient id="paint14_linear_1187_2515" x1="43.6838" y1="1.11927" x2="46.9391" y2="16.7846" gradientUnits="userSpaceOnUse">
<stop stop-color="#A3EDFF"/>
<stop offset="1" stop-color="#003747"/>
</linearGradient>
<linearGradient id="paint15_linear_1187_2515" x1="57.8739" y1="0.375333" x2="56.782" y2="16.338" gradientUnits="userSpaceOnUse">
<stop stop-color="#A3EDFF"/>
<stop offset="1" stop-color="#003747"/>
</linearGradient>
<linearGradient id="paint16_linear_1187_2515" x1="71.1898" y1="3.16463" x2="65.8317" y2="18.2408" gradientUnits="userSpaceOnUse">
<stop stop-color="#A3EDFF"/>
<stop offset="1" stop-color="#003747"/>
</linearGradient>
<linearGradient id="paint17_linear_1187_2515" x1="91.3918" y1="13.1383" x2="78.9804" y2="23.2357" gradientUnits="userSpaceOnUse">
<stop stop-color="#A3EDFF"/>
<stop offset="1" stop-color="#003747"/>
</linearGradient>
<linearGradient id="paint18_linear_1187_2515" x1="100.176" y1="25.1286" x2="85.5002" y2="31.5031" gradientUnits="userSpaceOnUse">
<stop stop-color="#A3EDFF"/>
<stop offset="1" stop-color="#003747"/>
</linearGradient>
<linearGradient id="paint19_linear_1187_2515" x1="103.924" y1="38.9487" x2="88.0726" y2="41.1274" gradientUnits="userSpaceOnUse">
<stop stop-color="#A3EDFF"/>
<stop offset="1" stop-color="#003747"/>
</linearGradient>
</defs>
</svg>
