<svg id="visual" viewBox="0 0 900 600" width="900" height="600" xmlns="http://www.w3.org/2000/svg" xmlns:xlink="http://www.w3.org/1999/xlink" version="1.1"><rect x="0" y="0" width="900" height="600" fill="#003747"></rect><path d="M0 127L30 126C60 125 120 123 180 121.5C240 120 300 119 360 130.3C420 141.7 480 165.3 540 165.7C600 166 660 143 720 124.3C780 105.7 840 91.3 870 84.2L900 77L900 601L870 601C840 601 780 601 720 601C660 601 600 601 540 601C480 601 420 601 360 601C300 601 240 601 180 601C120 601 60 601 30 601L0 601Z" fill="#4facf7"></path><path d="M0 225L30 220C60 215 120 205 180 209C240 213 300 231 360 229.2C420 227.3 480 205.7 540 201C600 196.3 660 208.7 720 204.2C780 199.7 840 178.3 870 167.7L900 157L900 601L870 601C840 601 780 601 720 601C660 601 600 601 540 601C480 601 420 601 360 601C300 601 240 601 180 601C120 601 60 601 30 601L0 601Z" fill="#2d91cc"></path><path d="M0 238L30 247C60 256 120 274 180 276.5C240 279 300 266 360 269.8C420 273.7 480 294.3 540 294.8C600 295.3 660 275.7 720 270.7C780 265.7 840 275.3 870 280.2L900 285L900 601L870 601C840 601 780 601 720 601C660 601 600 601 540 601C480 601 420 601 360 601C300 601 240 601 180 601C120 601 60 601 30 601L0 601Z" fill="#0f75a1"></path><path d="M0 334L30 331.2C60 328.3 120 322.7 180 330.5C240 338.3 300 359.7 360 361.5C420 363.3 480 345.7 540 340.7C600 335.7 660 343.3 720 342.8C780 342.3 840 333.7 870 329.3L900 325L900 601L870 601C840 601 780 601 720 601C660 601 600 601 540 601C480 601 420 601 360 601C300 601 240 601 180 601C120 601 60 601 30 601L0 601Z" fill="#005a79"></path><path d="M0 417L30 426.8C60 436.7 120 456.3 180 467.3C240 478.3 300 480.7 360 470.5C420 460.3 480 437.7 540 435C600 432.3 660 449.7 720 448C780 446.3 840 425.7 870 415.3L900 405L900 601L870 601C840 601 780 601 720 601C660 601 600 601 540 601C480 601 420 601 360 601C300 601 240 601 180 601C120 601 60 601 30 601L0 601Z" fill="#004054"></path><path d="M0 491L30 496.3C60 501.7 120 512.3 180 521C240 529.7 300 536.3 360 533.3C420 530.3 480 517.7 540 511.7C600 505.7 660 506.3 720 513.8C780 521.3 840 535.7 870 542.8L900 550L900 601L870 601C840 601 780 601 720 601C660 601 600 601 540 601C480 601 420 601 360 601C300 601 240 601 180 601C120 601 60 601 30 601L0 601Z" fill="#002732"></path></svg>