<svg width="100" height="100" viewBox="0 0 100 100" fill="none" xmlns="http://www.w3.org/2000/svg">
<path d="M64.366 5.77483L64.3725 5.77693L78.7705 10.4008L87.6173 22.6652L87.6213 22.6707L96.5517 34.8744L96.5 49.9966L96.5 50.0034L96.5517 65.1256L87.6213 77.3292L87.6173 77.3348L78.7705 89.5992L64.3725 94.2231L64.366 94.2252L50 98.9474L35.634 94.2252L35.6275 94.2231L21.2295 89.5992L12.3827 77.3348L12.3787 77.3293L3.44829 65.1256L3.50002 50.0034L3.49999 49.9966L3.44829 34.8744L12.3787 22.6707L12.3787 22.6708L12.3827 22.6652L21.2295 10.4008L35.6275 5.77695L35.634 5.77481L50 1.05264L64.366 5.77483Z" stroke="white" stroke-width="2"/>
<path d="M70.7012 50.7071C71.0918 50.3166 71.0918 49.6834 70.7012 49.2929L64.3373 42.9289C63.9468 42.5384 63.3136 42.5384 62.9231 42.9289C62.5325 43.3195 62.5325 43.9526 62.9231 44.3431L68.5799 50L62.9231 55.6569C62.5325 56.0474 62.5325 56.6805 62.9231 57.0711C63.3136 57.4616 63.9468 57.4616 64.3373 57.0711L70.7012 50.7071ZM29.9941 51H69.9941V49H29.9941V51Z" fill="white"/>
</svg>
