<svg width="509" height="438" viewBox="0 0 509 438" fill="none" xmlns="http://www.w3.org/2000/svg">
<path d="M305 65C305 92.6142 282.614 115 255 115C227.386 115 205 92.6142 205 65C205 37.3858 227.386 15 255 15C282.614 15 305 37.3858 305 65Z" fill="#F4CDA5"/>
<path fill-rule="evenodd" clip-rule="evenodd" d="M320 65C320 100.899 290.898 130 255 130C219.101 130 190 100.899 190 65C190 29.1015 219.101 0 255 0C290.898 0 320 29.1015 320 65ZM255 115C282.614 115 305 92.6142 305 65C305 37.3858 282.614 15 255 15C227.386 15 205 37.3858 205 65C205 92.6142 227.386 115 255 115Z" fill="black"/>
<path d="M150 174C150 157.431 163.431 144 180 144H329C345.569 144 359 157.431 359 174V186H150V174Z" fill="#8C6239"/>
<path fill-rule="evenodd" clip-rule="evenodd" d="M374 201H135V174C135 149.147 155.147 129 180 129H329C353.853 129 374 149.147 374 174V201ZM150.148 171C151.653 155.84 164.444 144 180 144H329C344.556 144 357.347 155.84 358.852 171C358.95 171.987 359 172.988 359 174V186H150V174C150 172.988 150.05 171.987 150.148 171Z" fill="black"/>
<path d="M118.041 205.538C118.019 205.248 118.248 205 118.539 205H391.464C391.754 205 391.983 205.246 391.963 205.535L380.533 369.035C380.514 369.297 380.296 369.5 380.034 369.5H130.963C130.702 369.5 130.485 369.299 130.465 369.038L118.041 205.538Z" fill="#B0BEC5"/>
<path fill-rule="evenodd" clip-rule="evenodd" d="M118.041 205.538C118.019 205.248 118.248 205 118.539 205H391.464C391.754 205 391.983 205.246 391.963 205.535L380.533 369.035C380.514 369.297 380.296 369.5 380.034 369.5H130.963C130.702 369.5 130.485 369.299 130.465 369.038L118.041 205.538ZM118.539 190H391.464C400.45 190 407.553 197.617 406.926 206.581L395.496 370.081C394.928 378.202 388.175 384.5 380.034 384.5H130.963C122.858 384.5 116.122 378.256 115.508 370.174L103.084 206.674C102.4 197.677 109.516 190 118.539 190Z" fill="black"/>
<path d="M290 287C290 306.33 274.33 322 255 322C235.67 322 220 306.33 220 287C220 267.67 235.67 252 255 252C274.33 252 290 267.67 290 287Z" fill="white"/>
<path fill-rule="evenodd" clip-rule="evenodd" d="M255 307C266.046 307 275 298.046 275 287C275 275.954 266.046 267 255 267C243.954 267 235 275.954 235 287C235 298.046 243.954 307 255 307ZM255 322C274.33 322 290 306.33 290 287C290 267.67 274.33 252 255 252C235.67 252 220 267.67 220 287C220 306.33 235.67 322 255 322Z" fill="black"/>
<path d="M440.905 235V231H457.405V237.5C457.405 239 450.677 245.01 449.405 246C448.134 246.99 448 251 449.405 252.5C450.811 254 457.406 261.5 457.405 267C457.405 272.5 450.783 277.876 449.405 286.5H432.905C433.201 278.071 440.905 270.5 440.905 267C440.906 263.5 434.381 260.768 432.905 255.5C431.694 251.175 431.702 248.47 432.905 244C434.109 239.53 440.905 236.5 440.905 235Z" fill="black"/>
<path d="M468.312 235V231H484.812V237.5C484.812 239 478.083 245.01 476.812 246C475.54 246.99 475.406 251 476.812 252.5C478.217 254 484.812 261.5 484.812 267C484.811 272.5 478.189 277.876 476.812 286.5H460.312C460.608 278.071 468.311 270.5 468.312 267C468.312 263.5 461.787 260.768 460.312 255.5C459.101 251.175 459.108 248.47 460.312 244C461.515 239.53 468.312 236.5 468.312 235Z" fill="black"/>
<path d="M15 370.5C15 370.224 15.2239 370 15.5 370H493.5C493.776 370 494 370.224 494 370.5V395.5C494 395.776 493.776 396 493.5 396H15.5C15.2239 396 15 395.776 15 395.5V370.5Z" fill="#603813"/>
<path fill-rule="evenodd" clip-rule="evenodd" d="M15.5 355H493.5C502.06 355 509 361.939 509 370.5V395.5C509 404.06 502.06 411 493.5 411H15.5C6.93987 411 0 404.061 0 395.5V370.5C0 361.94 6.93957 355 15.5 355ZM15.5 370C15.2239 370 15 370.224 15 370.5V395.5C15 395.776 15.2239 396 15.5 396H493.5C493.776 396 494 395.776 494 395.5V370.5C494 370.224 493.776 370 493.5 370H15.5Z" fill="black"/>
<path d="M38 412H471V438H38V412Z" fill="#8C6239"/>
<path fill-rule="evenodd" clip-rule="evenodd" d="M23 397H486V438H471V412H38V438H23V397Z" fill="black"/>
<path d="M441 306.85C441 306.381 441.381 306 441.85 306H474.15C474.619 306 475 306.381 475 306.85V332.775C475 339.112 469.862 344.25 463.525 344.25H452.475C446.138 344.25 441 339.112 441 332.775V306.85Z" fill="#1A76D2"/>
<path fill-rule="evenodd" clip-rule="evenodd" d="M441.85 294.525H474.15C480.957 294.525 486.475 300.043 486.475 306.85V332.775C486.475 345.45 476.2 355.725 463.525 355.725H452.475C439.8 355.725 429.525 345.45 429.525 332.775V306.85C429.525 300.043 435.043 294.525 441.85 294.525ZM441.85 306C441.381 306 441 306.381 441 306.85V332.775C441 339.112 446.138 344.25 452.475 344.25H463.525C469.862 344.25 475 339.112 475 332.775V306.85C475 306.381 474.619 306 474.15 306H441.85Z" fill="black"/>
<path fill-rule="evenodd" clip-rule="evenodd" d="M40 337C36.134 337 33 340.134 33 344V354H63V344C63 340.134 59.866 337 56 337H40Z" fill="#546E7A"/>
<path fill-rule="evenodd" clip-rule="evenodd" d="M21 366V344C21 333.507 29.5066 325 40 325H56C66.4934 325 75 333.507 75 344V366H21ZM62.7101 342C61.8496 339.109 59.171 337 56 337H40C36.829 337 34.1504 339.109 33.2899 342C33.1013 342.634 33 343.305 33 344V354H63V344C63 343.305 62.8987 342.634 62.7101 342Z" fill="black"/>
</svg>
