<svg width="100" height="100" viewBox="0 0 100 100" fill="none" xmlns="http://www.w3.org/2000/svg">
<path d="M15.3787 26.2167C21.2245 19.8792 30.0703 16.6667 41.6662 16.6667H45.8328V28.4126L42.4828 29.0834C36.7745 30.2251 32.8037 32.4709 30.6787 35.7667C29.5695 37.5421 28.9407 39.5752 28.8537 41.6667H41.6662C42.7712 41.6667 43.831 42.1057 44.6124 42.8871C45.3938 43.6685 45.8328 44.7283 45.8328 45.8334V75.0001C45.8328 79.5959 42.0953 83.3334 37.4995 83.3334H12.4995C11.3944 83.3334 10.3346 82.8944 9.55323 82.113C8.77183 81.3316 8.33284 80.2718 8.33284 79.1667V58.3334L8.34534 46.1709C8.30784 45.7084 7.51617 34.7501 15.3787 26.2167ZM83.3328 83.3334H58.3328C57.2278 83.3334 56.168 82.8944 55.3866 82.113C54.6052 81.3316 54.1662 80.2718 54.1662 79.1667V58.3334L54.1787 46.1709C54.1412 45.7084 53.3495 34.7501 61.212 26.2167C67.0578 19.8792 75.9037 16.6667 87.4995 16.6667H91.6662V28.4126L88.3162 29.0834C82.6078 30.2251 78.637 32.4709 76.512 35.7667C75.4029 37.5421 74.774 39.5752 74.687 41.6667H87.4995C88.6046 41.6667 89.6644 42.1057 90.4458 42.8871C91.2272 43.6685 91.6662 44.7283 91.6662 45.8334V75.0001C91.6662 79.5959 87.9287 83.3334 83.3328 83.3334Z" fill="white"/>
</svg>
