<svg width="40" height="40" viewBox="0 0 56 56" fill="none" xmlns="http://www.w3.org/2000/svg">
<circle cx="27.8581" cy="27.8571" r="27.8571" fill="black" fill-opacity="0.8"/>
<path d="M41.7865 13.7494C39.962 11.9071 37.789 10.4463 35.3943 9.45216C32.9995 8.45805 30.4309 7.9505 27.838 7.95909C16.9737 7.95909 8.11914 16.8137 8.11914 27.678C8.11914 31.1601 9.03445 34.5428 10.7457 37.5275L7.95996 47.755L18.4064 45.0091C21.2916 46.581 24.535 47.4167 27.838 47.4167C38.7023 47.4167 47.5569 38.5622 47.5569 27.6979C47.5569 22.4249 45.5074 17.4703 41.7865 13.7494ZM27.838 44.0739C24.8931 44.0739 22.0079 43.278 19.4809 41.7856L18.8839 41.4275L12.6758 43.0591L14.3273 37.0101L13.9293 36.3933C12.2928 33.7808 11.424 30.7607 11.4222 27.678C11.4222 18.6443 18.7844 11.2821 27.8181 11.2821C32.1957 11.2821 36.3146 12.9933 39.3987 16.0974C40.9261 17.6173 42.1365 19.4254 42.9597 21.4167C43.7829 23.4081 44.2025 25.5431 44.1941 27.6979C44.2339 36.7315 36.8717 44.0739 27.838 44.0739ZM36.8319 31.8167C36.3344 31.578 33.9069 30.3841 33.4691 30.205C33.0115 30.0458 32.6931 29.9662 32.3549 30.4438C32.0166 30.9412 31.0814 32.0555 30.8028 32.3739C30.5242 32.7122 30.2258 32.7519 29.7283 32.4933C29.2309 32.2545 27.639 31.7173 25.7686 30.0458C24.2962 28.7326 23.3212 27.1208 23.0227 26.6234C22.7441 26.1259 22.9829 25.8673 23.2416 25.6086C23.4605 25.3897 23.739 25.0315 23.9778 24.753C24.2166 24.4744 24.3161 24.2555 24.4753 23.9372C24.6345 23.5989 24.5549 23.3203 24.4355 23.0815C24.3161 22.8428 23.3212 20.4152 22.9232 19.4203C22.5253 18.4652 22.1074 18.5846 21.8089 18.5647H20.8538C20.5156 18.5647 19.9982 18.6841 19.5406 19.1815C19.1028 19.679 17.8293 20.8729 17.8293 23.3004C17.8293 25.728 19.6003 28.0759 19.839 28.3943C20.0778 28.7326 23.3212 33.7071 28.2559 35.8361C29.4299 36.3535 30.3452 36.652 31.0615 36.8708C32.2355 37.2489 33.31 37.1892 34.1656 37.0698C35.1207 36.9305 37.0906 35.8759 37.4885 34.7218C37.9064 33.5678 37.9064 32.5928 37.7671 32.3739C37.6278 32.155 37.3293 32.0555 36.8319 31.8167Z" fill="white"/>
</svg>
