<svg width="50" height="61" viewBox="0 0 50 61" fill="none" xmlns="http://www.w3.org/2000/svg">
<path d="M12.9179 19.2211C12.9179 18.7878 12.7415 18.115 13.216 17.8403C14.0242 17.3724 16.9082 16.8087 17.3899 18.0129C17.601 18.5408 16.3825 20.23 16.0404 20.7431C15.7738 21.1431 15.5386 21.4985 15.1774 21.8258C14.6769 22.2794 14.6427 22.7969 14.487 23.4263C14.0438 25.2175 13.3386 26.9474 12.6041 28.6358C10.7494 32.8987 8.45197 36.7655 7.14357 41.2514C6.53102 43.3516 5.42916 44.8509 5.29201 47.1827C5.26476 47.6459 4.87015 48.3062 4.74283 48.7518C4.5747 49.3403 4.8472 50.137 4.30347 50.5719C3.97989 50.8308 4.33695 51.1547 4.03673 50.5719C3.71709 49.9515 3.22265 49.4721 2.96973 48.8145C2.30545 47.0874 1.41585 45.6755 1.19663 43.7463C0.136134 34.4137 3.46213 26.259 8.8382 18.8131C13.0379 12.9965 18.6384 7.59206 24.9059 4.0635C28.2336 2.19003 32.8756 0.194528 36.7684 1.33324C45.4462 3.87167 41.9298 13.7857 38.4787 19.1427C34.4466 25.4015 29.2665 30.5364 24.7961 36.4186C23.2918 38.3979 21.6608 40.2959 20.1986 42.287C18.8601 44.1096 17.7022 46.009 16.5268 47.9358C15.0688 50.326 14.4928 53.0262 13.2003 55.4676C12.8093 56.2063 11.7881 57.7606 11.7881 58.6215C11.7881 58.9258 11.3254 59.7251 11.3488 59.4217C11.4864 57.6321 12.79 55.5594 13.42 53.8985C15.2684 49.0254 17.0745 44.2358 19.414 39.5568C20.8041 36.7766 22.2904 34.1232 23.9487 31.4916C26.0251 28.1964 27.9826 24.5914 30.4919 21.6062C32.3684 19.3738 34.4296 17.0219 36.6115 15.0787C37.2691 14.4929 38.1267 13.6632 38.9651 13.3526C40.2763 12.867 41.727 12.465 43.139 12.7878C45.4869 13.3244 45.4553 14.3728 45.2573 16.789C44.833 21.9655 41.9024 27.7454 38.6199 31.774C36.3718 34.5331 34.6187 38.1543 33.3791 41.4711C32.3939 44.1072 31.8006 46.6434 32.1081 49.4108C32.1763 50.0243 32.4199 50.3554 32.6259 50.9171C34.0056 54.6798 39.1553 45.3144 39.8752 44.2327C41.2748 42.1298 42.8213 39.1646 45.0533 37.7052C45.9817 37.0982 47.1693 37.2226 47.7992 38.1917C49.4413 40.7179 47.9553 43.8154 46.795 46.1941C45.0647 49.7412 42.7445 52.9995 40.597 56.2207" stroke="black" stroke-width="2"/>
</svg>
