<svg width="245" height="137" viewBox="0 0 245 137" fill="none" xmlns="http://www.w3.org/2000/svg">
<path d="M145.631 1.8187C140.092 3.31598 135.647 4.88086 130.127 7.31657C94.2405 23.1493 57.3792 40.1141 24.6278 61.8422C14.7703 68.3819 4.81707 80.8227 1.89616 92.8186C-4.43299 118.812 38.1461 129.178 55.6653 131.215C91.4574 135.376 125.733 119.609 155.168 100.92C175.54 87.9852 190.896 72.2291 207.455 55.0276C212.281 50.0145 218.56 45.3833 220.019 38.1699C225.259 12.2728 168.689 9.93899 156.033 11.292C131.858 13.8763 107.618 20.6055 85.7777 31.3284C64.031 42.0055 52.9465 54.0446 39.0659 72.7078C26.6201 89.4419 17.2774 114.259 40.8259 126.6C64.1833 138.842 93.1424 131.879 116.928 124.326C145.174 115.357 174.924 96.9015 197.17 77.412C205.899 69.7639 232.665 50.8405 219.239 35.767C187.676 0.330747 126.388 23.8621 90.9231 41.1772C72.9178 49.968 56.8137 62.7801 40.9752 74.9362C33.9369 80.3382 22.1407 91.9776 22.3252 101.673C22.7151 122.165 37.4528 131.138 55.9683 134.27C91.6859 140.311 124.677 126.078 154.246 107.181C168.556 98.0358 209.055 73.8665 201.102 50.8637C182.724 -2.29403 103.762 44.2203 77.1711 64.7599C63.0322 75.6812 25.9083 105.339 47.9986 125.576C68.0595 143.954 109.026 130.644 131.014 124.701C162.16 116.282 193.092 101.678 218.395 81.4764C227.079 74.543 234.193 63.7181 243.102 57.8077" stroke="#A3EDFF" stroke-width="2.41203" stroke-linecap="round"/>
</svg>
