<svg width="249" height="70" viewBox="0 0 249 70" fill="none" xmlns="http://www.w3.org/2000/svg">
<path d="M21.3571 66.5758V55.0418H25.4166C26.3027 55.0418 27.0367 55.2051 27.6188 55.5318C28.2008 55.8584 28.6364 56.3052 28.9256 56.8722C29.2148 57.4354 29.3594 58.0699 29.3594 58.7757C29.3594 59.4853 29.2129 60.1236 28.92 60.6906C28.6309 61.2537 28.1934 61.7005 27.6077 62.0309C27.0256 62.3576 26.2934 62.5209 25.4111 62.5209H22.6195V61.0454H25.2554C25.8152 61.0454 26.2693 60.9477 26.6178 60.7525C26.9663 60.5535 27.2221 60.2832 27.3852 59.9415C27.5483 59.5999 27.6299 59.2113 27.6299 58.7757C27.6299 58.3402 27.5483 57.9535 27.3852 57.6156C27.2221 57.2777 26.9644 57.013 26.6122 56.8215C26.2638 56.63 25.804 56.5343 25.2331 56.5343H23.0755V66.5758H21.3571Z" fill="white"/>
<path d="M32.9031 61.4396V66.5758H31.2403V55.0418H32.8808V59.3333H32.9865C33.1867 58.8677 33.4925 58.4979 33.904 58.2238C34.3156 57.9497 34.8531 57.8127 35.5167 57.8127C36.1025 57.8127 36.6141 57.9347 37.0515 58.1788C37.4927 58.4228 37.8338 58.787 38.0748 59.2713C38.3194 59.7519 38.4418 60.3526 38.4418 61.0735V66.5758H36.7791V61.2763C36.7791 60.6417 36.6178 60.1499 36.2953 59.8007C35.9727 59.4478 35.5241 59.2713 34.9495 59.2713C34.5565 59.2713 34.2043 59.3558 33.8929 59.5248C33.5852 59.6937 33.3424 59.9415 33.1644 60.2682C32.9902 60.5911 32.9031 60.9815 32.9031 61.4396Z" fill="white"/>
<path d="M44.2585 66.7504C43.4578 66.7504 42.7589 66.5646 42.1621 66.1929C41.5652 65.8212 41.1018 65.3012 40.7718 64.6329C40.4419 63.9645 40.2769 63.1836 40.2769 62.29C40.2769 61.3927 40.4419 60.608 40.7718 59.9359C41.1018 59.2638 41.5652 58.7419 42.1621 58.3702C42.7589 57.9985 43.4578 57.8127 44.2585 57.8127C45.0593 57.8127 45.7582 57.9985 46.355 58.3702C46.9519 58.7419 47.4153 59.2638 47.7453 59.9359C48.0752 60.608 48.2402 61.3927 48.2402 62.29C48.2402 63.1836 48.0752 63.9645 47.7453 64.6329C47.4153 65.3012 46.9519 65.8212 46.355 66.1929C45.7582 66.5646 45.0593 66.7504 44.2585 66.7504ZM44.2641 65.3368C44.7831 65.3368 45.2132 65.1979 45.5543 64.9201C45.8953 64.6422 46.1474 64.2724 46.3105 63.8106C46.4774 63.3488 46.5608 62.84 46.5608 62.2844C46.5608 61.7324 46.4774 61.2256 46.3105 60.7638C46.1474 60.2982 45.8953 59.9246 45.5543 59.643C45.2132 59.3614 44.7831 59.2206 44.2641 59.2206C43.7414 59.2206 43.3076 59.3614 42.9628 59.643C42.6218 59.9246 42.3678 60.2982 42.201 60.7638C42.0379 61.2256 41.9563 61.7324 41.9563 62.2844C41.9563 62.84 42.0379 63.3488 42.201 63.8106C42.3678 64.2724 42.6218 64.6422 42.9628 64.9201C43.3076 65.1979 43.7414 65.3368 44.2641 65.3368Z" fill="white"/>
<path d="M54.0834 57.9253V59.277H49.4177V57.9253H54.0834ZM50.6689 55.8528H52.3317V64.0359C52.3317 64.3625 52.3799 64.6084 52.4763 64.7736C52.5726 64.9351 52.6968 65.0459 52.8488 65.1059C53.0045 65.1622 53.1732 65.1904 53.3549 65.1904C53.4883 65.1904 53.6051 65.181 53.7052 65.1622C53.8053 65.1435 53.8832 65.1285 53.9388 65.1172L54.2391 66.5083C54.1427 66.5458 54.0055 66.5833 53.8276 66.6209C53.6496 66.6622 53.4272 66.6847 53.1603 66.6885C52.7228 66.696 52.315 66.6171 51.9368 66.4519C51.5587 66.2867 51.2528 66.0314 51.0193 65.686C50.7857 65.3406 50.6689 64.9069 50.6689 64.3851V55.8528Z" fill="white"/>
<path d="M59.4288 66.7504C58.6281 66.7504 57.9292 66.5646 57.3324 66.1929C56.7355 65.8212 56.2721 65.3012 55.9421 64.6329C55.6122 63.9645 55.4472 63.1836 55.4472 62.29C55.4472 61.3927 55.6122 60.608 55.9421 59.9359C56.2721 59.2638 56.7355 58.7419 57.3324 58.3702C57.9292 57.9985 58.6281 57.8127 59.4288 57.8127C60.2296 57.8127 60.9284 57.9985 61.5253 58.3702C62.1222 58.7419 62.5856 59.2638 62.9156 59.9359C63.2455 60.608 63.4105 61.3927 63.4105 62.29C63.4105 63.1836 63.2455 63.9645 62.9156 64.6329C62.5856 65.3012 62.1222 65.8212 61.5253 66.1929C60.9284 66.5646 60.2296 66.7504 59.4288 66.7504ZM59.4344 65.3368C59.9534 65.3368 60.3835 65.1979 60.7245 64.9201C61.0656 64.6422 61.3177 64.2724 61.4808 63.8106C61.6477 63.3488 61.7311 62.84 61.7311 62.2844C61.7311 61.7324 61.6477 61.2256 61.4808 60.7638C61.3177 60.2982 61.0656 59.9246 60.7245 59.643C60.3835 59.3614 59.9534 59.2206 59.4344 59.2206C58.9117 59.2206 58.4779 59.3614 58.1331 59.643C57.7921 59.9246 57.5381 60.2982 57.3713 60.7638C57.2082 61.2256 57.1266 61.7324 57.1266 62.2844C57.1266 62.84 57.2082 63.3488 57.3713 63.8106C57.5381 64.2724 57.7921 64.6422 58.1331 64.9201C58.4779 65.1979 58.9117 65.3368 59.4344 65.3368Z" fill="white"/>
<path d="M68.8477 70C68.1693 70 67.5854 69.9099 67.096 69.7297C66.6104 69.5495 66.2137 69.311 65.906 69.0144C65.5983 68.7178 65.3684 68.393 65.2164 68.0401L66.6456 67.4431C66.7457 67.6083 66.8791 67.7829 67.046 67.9669C67.2165 68.1546 67.4463 68.3142 67.7355 68.4456C68.0284 68.577 68.4047 68.6427 68.8644 68.6427C69.4946 68.6427 70.0155 68.4869 70.427 68.1753C70.8385 67.8674 71.0443 67.3756 71.0443 66.6997V64.9989H70.9386C70.8385 65.1829 70.6939 65.3875 70.5049 65.6128C70.3195 65.8381 70.0637 66.0333 69.7375 66.1985C69.4112 66.3637 68.9867 66.4463 68.464 66.4463C67.7893 66.4463 67.1813 66.2867 66.64 65.9676C66.1024 65.6447 65.6761 65.1698 65.361 64.5427C65.0496 63.912 64.8939 63.1367 64.8939 62.2168C64.8939 61.2969 65.0477 60.5085 65.3554 59.8514C65.6668 59.1944 66.0932 58.6913 66.6344 58.3421C67.1757 57.9891 67.7893 57.8127 68.4751 57.8127C69.0053 57.8127 69.4335 57.9028 69.7597 58.083C70.086 58.2595 70.3399 58.466 70.5216 58.7025C70.7069 58.9391 70.8497 59.1474 70.9498 59.3277H71.0721V57.9253H72.7015V66.7673C72.7015 67.5107 72.5309 68.1208 72.1898 68.5977C71.8488 69.0745 71.3872 69.4274 70.8052 69.6565C70.2268 69.8855 69.5743 70 68.8477 70ZM68.831 65.0496C69.3093 65.0496 69.7134 64.937 70.0433 64.7117C70.377 64.4827 70.6291 64.156 70.7996 63.7318C70.9738 63.3037 71.061 62.7912 71.061 62.1943C71.061 61.6123 70.9757 61.0998 70.8052 60.6568C70.6346 60.2137 70.3844 59.8683 70.0544 59.6205C69.7245 59.369 69.3167 59.2432 68.831 59.2432C68.3305 59.2432 67.9135 59.3746 67.5798 59.6374C67.2462 59.8965 66.9941 60.2494 66.8235 60.6962C66.6567 61.143 66.5733 61.6423 66.5733 62.1943C66.5733 62.7612 66.6585 63.2587 66.8291 63.6867C66.9996 64.1147 67.2517 64.4489 67.5854 64.6892C67.9227 64.9295 68.338 65.0496 68.831 65.0496Z" fill="white"/>
<path d="M74.9314 66.5758V57.9253H76.5385V59.2995H76.6275C76.7832 58.8339 77.0575 58.4679 77.4505 58.2013C77.8472 57.931 78.2958 57.7958 78.7963 57.7958C78.9001 57.7958 79.0224 57.7995 79.1633 57.8071C79.3079 57.8146 79.4209 57.824 79.5025 57.8352V59.4459C79.4358 59.4271 79.3171 59.4065 79.1466 59.384C78.9761 59.3577 78.8055 59.3446 78.635 59.3446C78.242 59.3446 77.8917 59.429 77.584 59.598C77.28 59.7632 77.039 59.9941 76.861 60.2907C76.6831 60.5836 76.5941 60.9177 76.5941 61.2932V66.5758H74.9314Z" fill="white"/>
<path d="M83.3507 66.7673C82.8094 66.7673 82.3201 66.666 81.8826 66.4632C81.4451 66.2567 81.0985 65.9582 80.8427 65.5677C80.5906 65.1773 80.4645 64.6986 80.4645 64.1316C80.4645 63.6435 80.5572 63.2418 80.7426 62.9264C80.928 62.611 81.1782 62.3613 81.4933 62.1774C81.8084 61.9934 82.1606 61.8545 82.5499 61.7606C82.9392 61.6667 83.3359 61.5954 83.74 61.5466C84.2516 61.4865 84.6668 61.4377 84.9856 61.4002C85.3044 61.3589 85.5361 61.2932 85.6807 61.2031C85.8253 61.1129 85.8976 60.9665 85.8976 60.7638V60.7244C85.8976 60.2325 85.7604 59.8514 85.4861 59.5811C85.2155 59.3108 84.8114 59.1756 84.2738 59.1756C83.714 59.1756 83.2728 59.3014 82.9503 59.5529C82.6315 59.8007 82.4109 60.0767 82.2885 60.3808L80.7259 60.0204C80.9113 59.4947 81.1819 59.0705 81.5378 58.7476C81.8974 58.4209 82.3108 58.1844 82.7779 58.038C83.245 57.8878 83.7362 57.8127 84.2516 57.8127C84.5926 57.8127 84.9541 57.854 85.336 57.9366C85.7215 58.0154 86.0811 58.1619 86.4148 58.3759C86.7521 58.5899 87.0283 58.8959 87.2434 59.2939C87.4584 59.6881 87.5659 60.2006 87.5659 60.8314V66.5758H85.9421V65.3932H85.8754C85.7678 65.6109 85.6066 65.8249 85.3916 66.0352C85.1765 66.2454 84.9003 66.42 84.563 66.5589C84.2256 66.6979 83.8215 66.7673 83.3507 66.7673ZM83.7121 65.4157C84.1719 65.4157 84.5648 65.3237 84.8911 65.1397C85.221 64.9557 85.4713 64.7155 85.6418 64.4188C85.816 64.1185 85.9032 63.7975 85.9032 63.4558V62.3407C85.8438 62.4008 85.7289 62.4571 85.5584 62.5096C85.3916 62.5585 85.2006 62.6016 84.9856 62.6392C84.7706 62.673 84.5611 62.7049 84.3572 62.7349C84.1533 62.7612 83.9828 62.7837 83.8456 62.8025C83.5231 62.8438 83.2283 62.9133 82.9614 63.0109C82.6982 63.1085 82.4869 63.2493 82.3275 63.4333C82.1718 63.6135 82.0939 63.8538 82.0939 64.1541C82.0939 64.5709 82.2459 64.8863 82.5499 65.1003C82.8539 65.3105 83.2413 65.4157 83.7121 65.4157Z" fill="white"/>
<path d="M89.7805 69.8198V57.9253H91.4043V59.3277H91.5434C91.6398 59.1474 91.7788 58.9391 91.9604 58.7025C92.1421 58.466 92.3942 58.2595 92.7167 58.083C93.0393 57.9028 93.4656 57.8127 93.9958 57.8127C94.6853 57.8127 95.3007 57.9891 95.842 58.3421C96.3833 58.695 96.8077 59.2038 97.1154 59.8683C97.4269 60.5329 97.5826 61.3326 97.5826 62.2675C97.5826 63.2024 97.4287 64.004 97.121 64.6723C96.8133 65.3368 96.3907 65.8493 95.8531 66.2098C95.3156 66.5665 94.702 66.7448 94.0124 66.7448C93.4934 66.7448 93.0689 66.6566 92.739 66.4801C92.4127 66.3036 92.1569 66.0971 91.9716 65.8606C91.7862 65.6241 91.6435 65.4138 91.5434 65.2298H91.4433V69.8198H89.7805ZM91.4099 62.2506C91.4099 62.8588 91.497 63.392 91.6713 63.85C91.8455 64.3081 92.0976 64.6666 92.4276 64.9257C92.7575 65.181 93.1616 65.3087 93.6398 65.3087C94.1366 65.3087 94.5518 65.1754 94.8855 64.9088C95.2192 64.6385 95.4713 64.2724 95.6418 63.8106C95.816 63.3488 95.9032 62.8288 95.9032 62.2506C95.9032 61.6799 95.8179 61.1674 95.6474 60.7131C95.4805 60.2588 95.2284 59.9002 94.8911 59.6374C94.5574 59.3746 94.1403 59.2432 93.6398 59.2432C93.1579 59.2432 92.7501 59.369 92.4164 59.6205C92.0865 59.8721 91.8362 60.2231 91.6657 60.6737C91.4952 61.1242 91.4099 61.6499 91.4099 62.2506Z" fill="white"/>
<path d="M101.108 61.4396V66.5758H99.4455V55.0418H101.086V59.3333H101.192C101.392 58.8677 101.698 58.4979 102.109 58.2238C102.521 57.9497 103.058 57.8127 103.722 57.8127C104.308 57.8127 104.819 57.9347 105.257 58.1788C105.698 58.4228 106.039 58.787 106.28 59.2713C106.525 59.7519 106.647 60.3526 106.647 61.0735V66.5758H104.984V61.2763C104.984 60.6417 104.823 60.1499 104.5 59.8007C104.178 59.4478 103.729 59.2713 103.155 59.2713C102.762 59.2713 102.409 59.3558 102.098 59.5248C101.79 59.6937 101.548 59.9415 101.37 60.2682C101.195 60.5911 101.108 60.9815 101.108 61.4396Z" fill="white"/>
<path d="M109.611 69.8198C109.363 69.8198 109.136 69.7991 108.932 69.7578C108.729 69.7203 108.577 69.679 108.476 69.6339L108.877 68.2541C109.181 68.3367 109.452 68.3724 109.689 68.3611C109.926 68.3499 110.135 68.2598 110.317 68.0908C110.503 67.9219 110.666 67.6459 110.807 67.2629L111.012 66.6885L107.887 57.9253H109.667L111.83 64.6385H111.919L114.082 57.9253H115.867L112.347 67.7304C112.184 68.1809 111.976 68.562 111.724 68.8736C111.472 69.189 111.172 69.4256 110.823 69.5832C110.475 69.7409 110.071 69.8198 109.611 69.8198Z" fill="white"/>
<path d="M124.888 66.7392C124.125 66.7392 123.467 66.5984 122.914 66.3168C122.365 66.0352 121.943 65.6522 121.646 65.1679C121.35 64.6798 121.201 64.1279 121.201 63.5121C121.201 63.0428 121.298 62.626 121.491 62.2618C121.683 61.8939 121.952 61.5541 122.297 61.2425C122.642 60.9309 123.04 60.6173 123.492 60.302L125.328 58.9897C125.639 58.7832 125.882 58.5655 126.056 58.3364C126.23 58.1037 126.317 57.8164 126.317 57.4748C126.317 57.2044 126.202 56.9454 125.973 56.6976C125.743 56.4498 125.435 56.3259 125.05 56.3259C124.783 56.3259 124.547 56.3916 124.343 56.523C124.143 56.6544 123.986 56.8234 123.871 57.0299C123.759 57.2326 123.704 57.4466 123.704 57.6719C123.704 57.9347 123.774 58.1994 123.915 58.466C124.06 58.7326 124.245 59.0085 124.471 59.2939C124.697 59.5755 124.935 59.8683 125.183 60.1724L130.471 66.5758H128.592L124.215 61.3664C123.848 60.9271 123.507 60.5141 123.192 60.1274C122.877 59.7369 122.621 59.3427 122.425 58.9447C122.232 58.5429 122.136 58.1093 122.136 57.6437C122.136 57.1143 122.254 56.645 122.491 56.2358C122.732 55.8228 123.068 55.4999 123.498 55.2671C123.928 55.0343 124.432 54.9179 125.011 54.9179C125.596 54.9179 126.099 55.0343 126.518 55.2671C126.94 55.4961 127.265 55.8021 127.491 56.1851C127.721 56.5643 127.836 56.9792 127.836 57.4297C127.836 57.9779 127.7 58.4622 127.43 58.8827C127.163 59.2995 126.794 59.6825 126.323 60.0316L124.037 61.7381C123.593 62.0685 123.283 62.3951 123.109 62.718C122.938 63.0372 122.853 63.2868 122.853 63.4671C122.853 63.7975 122.936 64.1035 123.103 64.3851C123.274 64.6666 123.511 64.8919 123.815 65.0609C124.123 65.2298 124.482 65.3143 124.894 65.3143C125.316 65.3143 125.728 65.2223 126.128 65.0383C126.532 64.8506 126.898 64.5822 127.224 64.233C127.554 63.8838 127.815 63.4652 128.008 62.9771C128.201 62.489 128.297 61.9427 128.297 61.3382H129.799C129.799 62.0816 129.715 62.7105 129.548 63.2249C129.382 63.7355 129.179 64.1523 128.942 64.4752C128.709 64.7943 128.488 65.044 128.28 65.2242C128.214 65.2843 128.151 65.3443 128.091 65.4044C128.032 65.4645 127.969 65.5246 127.902 65.5846C127.517 65.9789 127.05 66.2698 126.501 66.4576C125.956 66.6453 125.418 66.7392 124.888 66.7392Z" fill="white"/>
<path d="M137.047 55.0418L140.217 64.4357H140.345L143.515 55.0418H145.372L141.274 66.5758H139.288L135.19 55.0418H137.047Z" fill="white"/>
<path d="M146.883 66.5758V57.9253H148.546V66.5758H146.883ZM147.723 56.5906C147.434 56.5906 147.185 56.493 146.978 56.2977C146.774 56.0987 146.672 55.8622 146.672 55.5881C146.672 55.3103 146.774 55.0737 146.978 54.8785C147.185 54.6795 147.434 54.58 147.723 54.58C148.012 54.58 148.259 54.6795 148.463 54.8785C148.67 55.0737 148.774 55.3103 148.774 55.5881C148.774 55.8622 148.67 56.0987 148.463 56.2977C148.259 56.493 148.012 56.5906 147.723 56.5906Z" fill="white"/>
<path d="M153.98 66.7448C153.291 66.7448 152.675 66.5665 152.134 66.2098C151.597 65.8493 151.174 65.3368 150.866 64.6723C150.562 64.004 150.41 63.2024 150.41 62.2675C150.41 61.3326 150.564 60.5329 150.872 59.8683C151.183 59.2038 151.61 58.695 152.151 58.3421C152.692 57.9891 153.306 57.8127 153.992 57.8127C154.522 57.8127 154.948 57.9028 155.271 58.083C155.597 58.2595 155.849 58.466 156.027 58.7025C156.208 58.9391 156.349 59.1474 156.449 59.3277H156.55V55.0418H158.212V66.5758H156.588V65.2298H156.449C156.349 65.4138 156.205 65.6241 156.016 65.8606C155.83 66.0971 155.575 66.3036 155.248 66.4801C154.922 66.6566 154.499 66.7448 153.98 66.7448ZM154.347 65.3087C154.826 65.3087 155.23 65.181 155.56 64.9257C155.893 64.6666 156.145 64.3081 156.316 63.85C156.49 63.392 156.577 62.8588 156.577 62.2506C156.577 61.6499 156.492 61.1242 156.322 60.6737C156.151 60.2231 155.901 59.8721 155.571 59.6205C155.241 59.369 154.833 59.2432 154.347 59.2432C153.847 59.2432 153.43 59.3746 153.096 59.6374C152.763 59.9002 152.51 60.2588 152.34 60.7131C152.173 61.1674 152.09 61.6799 152.09 62.2506C152.09 62.8288 152.175 63.3488 152.345 63.8106C152.516 64.2724 152.768 64.6385 153.102 64.9088C153.439 65.1754 153.854 65.3087 154.347 65.3087Z" fill="white"/>
<path d="M164.267 66.7504C163.425 66.7504 162.7 66.5683 162.092 66.2041C161.488 65.8362 161.021 65.3199 160.691 64.6554C160.365 63.9871 160.202 63.2042 160.202 62.3069C160.202 61.4208 160.365 60.6399 160.691 59.9641C161.021 59.2882 161.481 58.7607 162.07 58.3815C162.663 58.0023 163.357 57.8127 164.15 57.8127C164.632 57.8127 165.099 57.8934 165.551 58.0549C166.004 58.2163 166.41 58.4697 166.769 58.8152C167.129 59.1606 167.412 59.6092 167.62 60.1612C167.828 60.7093 167.931 61.3758 167.931 62.1605V62.7574H161.142V61.4959H166.302C166.302 61.0529 166.213 60.6605 166.035 60.3189C165.857 59.9734 165.607 59.7012 165.284 59.5022C164.966 59.3033 164.591 59.2037 164.161 59.2037C163.694 59.2037 163.286 59.3201 162.938 59.5529C162.593 59.782 162.326 60.0823 162.137 60.454C161.952 60.822 161.859 61.2218 161.859 61.6536V62.6392C161.859 63.2174 161.959 63.7092 162.159 64.1147C162.363 64.5202 162.647 64.83 163.01 65.044C163.373 65.2542 163.798 65.3594 164.283 65.3594C164.599 65.3594 164.886 65.3143 165.145 65.2242C165.405 65.1303 165.629 64.9914 165.818 64.8074C166.007 64.6235 166.152 64.3963 166.252 64.126L167.826 64.4132C167.7 64.8825 167.474 65.2937 167.147 65.6466C166.825 65.9958 166.419 66.268 165.93 66.4632C165.444 66.6547 164.89 66.7504 164.267 66.7504Z" fill="white"/>
<path d="M173.374 66.7504C172.573 66.7504 171.875 66.5646 171.278 66.1929C170.681 65.8212 170.217 65.3012 169.888 64.6329C169.558 63.9645 169.393 63.1836 169.393 62.29C169.393 61.3927 169.558 60.608 169.888 59.9359C170.217 59.2638 170.681 58.7419 171.278 58.3702C171.875 57.9985 172.573 57.8127 173.374 57.8127C174.175 57.8127 174.874 57.9985 175.471 58.3702C176.068 58.7419 176.531 59.2638 176.861 59.9359C177.191 60.608 177.356 61.3927 177.356 62.29C177.356 63.1836 177.191 63.9645 176.861 64.6329C176.531 65.3012 176.068 65.8212 175.471 66.1929C174.874 66.5646 174.175 66.7504 173.374 66.7504ZM173.38 65.3368C173.899 65.3368 174.329 65.1979 174.67 64.9201C175.011 64.6422 175.263 64.2724 175.426 63.8106C175.593 63.3488 175.676 62.84 175.676 62.2844C175.676 61.7324 175.593 61.2256 175.426 60.7638C175.263 60.2982 175.011 59.9246 174.67 59.643C174.329 59.3614 173.899 59.2206 173.38 59.2206C172.857 59.2206 172.423 59.3614 172.079 59.643C171.737 59.9246 171.484 60.2982 171.317 60.7638C171.154 61.2256 171.072 61.7324 171.072 62.2844C171.072 62.84 171.154 63.3488 171.317 63.8106C171.484 64.2724 171.737 64.6422 172.079 64.9201C172.423 65.1979 172.857 65.3368 173.38 65.3368Z" fill="white"/>
<path d="M182.793 70C182.115 70 181.531 69.9099 181.041 69.7297C180.556 69.5495 180.159 69.311 179.851 69.0144C179.544 68.7178 179.314 68.393 179.162 68.0401L180.591 67.4431C180.691 67.6083 180.825 67.7829 180.991 67.9669C181.162 68.1546 181.392 68.3142 181.681 68.4456C181.974 68.577 182.35 68.6427 182.81 68.6427C183.44 68.6427 183.961 68.4869 184.372 68.1753C184.784 67.8674 184.99 67.3756 184.99 66.6997V64.9989H184.884C184.784 65.1829 184.639 65.3875 184.45 65.6128C184.265 65.8381 184.009 66.0333 183.683 66.1985C183.357 66.3637 182.932 66.4463 182.409 66.4463C181.735 66.4463 181.127 66.2867 180.585 65.9676C180.048 65.6447 179.622 65.1698 179.306 64.5427C178.995 63.912 178.839 63.1367 178.839 62.2168C178.839 61.2969 178.993 60.5085 179.301 59.8514C179.612 59.1944 180.039 58.6913 180.58 58.3421C181.121 57.9891 181.735 57.8127 182.421 57.8127C182.951 57.8127 183.379 57.9028 183.705 58.083C184.031 58.2595 184.285 58.466 184.467 58.7025C184.652 58.9391 184.795 59.1474 184.895 59.3277H185.017V57.9253H186.647V66.7673C186.647 67.5107 186.476 68.1208 186.135 68.5977C185.794 69.0745 185.333 69.4274 184.751 69.6565C184.172 69.8855 183.52 70 182.793 70ZM182.776 65.0496C183.255 65.0496 183.659 64.937 183.989 64.7117C184.322 64.4827 184.574 64.156 184.745 63.7318C184.919 63.3037 185.006 62.7912 185.006 62.1943C185.006 61.6123 184.921 61.0998 184.751 60.6568C184.58 60.2137 184.33 59.8683 184 59.6205C183.67 59.369 183.262 59.2432 182.776 59.2432C182.276 59.2432 181.859 59.3746 181.525 59.6374C181.192 59.8965 180.939 60.2494 180.769 60.6962C180.602 61.143 180.519 61.6423 180.519 62.1943C180.519 62.7612 180.604 63.2587 180.774 63.6867C180.945 64.1147 181.197 64.4489 181.531 64.6892C181.868 64.9295 182.283 65.0496 182.776 65.0496Z" fill="white"/>
<path d="M188.877 66.5758V57.9253H190.484V59.2995H190.573C190.729 58.8339 191.003 58.4679 191.396 58.2013C191.793 57.931 192.241 57.7958 192.742 57.7958C192.845 57.7958 192.968 57.7995 193.109 57.8071C193.253 57.8146 193.366 57.824 193.448 57.8352V59.4459C193.381 59.4271 193.263 59.4065 193.092 59.384C192.921 59.3577 192.751 59.3446 192.58 59.3446C192.187 59.3446 191.837 59.429 191.529 59.598C191.225 59.7632 190.984 59.9941 190.806 60.2907C190.629 60.5836 190.54 60.9177 190.54 61.2932V66.5758H188.877Z" fill="white"/>
<path d="M197.296 66.7673C196.755 66.7673 196.265 66.666 195.828 66.4632C195.391 66.2567 195.044 65.9582 194.788 65.5677C194.536 65.1773 194.41 64.6986 194.41 64.1316C194.41 63.6435 194.503 63.2418 194.688 62.9264C194.873 62.611 195.124 62.3613 195.439 62.1774C195.754 61.9934 196.106 61.8545 196.495 61.7606C196.885 61.6667 197.281 61.5954 197.685 61.5466C198.197 61.4865 198.612 61.4377 198.931 61.4002C199.25 61.3589 199.482 61.2932 199.626 61.2031C199.771 61.1129 199.843 60.9665 199.843 60.7638V60.7244C199.843 60.2325 199.706 59.8514 199.431 59.5811C199.161 59.3108 198.757 59.1756 198.219 59.1756C197.659 59.1756 197.218 59.3014 196.896 59.5529C196.577 59.8007 196.356 60.0767 196.234 60.3808L194.671 60.0204C194.857 59.4947 195.127 59.0705 195.483 58.7476C195.843 58.4209 196.256 58.1844 196.723 58.038C197.19 57.8878 197.682 57.8127 198.197 57.8127C198.538 57.8127 198.9 57.854 199.281 57.9366C199.667 58.0154 200.027 58.1619 200.36 58.3759C200.698 58.5899 200.974 58.8959 201.189 59.2939C201.404 59.6881 201.511 60.2006 201.511 60.8314V66.5758H199.887V65.3932H199.821C199.713 65.6109 199.552 65.8249 199.337 66.0352C199.122 66.2454 198.846 66.42 198.508 66.5589C198.171 66.6979 197.767 66.7673 197.296 66.7673ZM197.658 65.4157C198.117 65.4157 198.51 65.3237 198.836 65.1397C199.166 64.9557 199.417 64.7155 199.587 64.4188C199.761 64.1185 199.849 63.7975 199.849 63.4558V62.3407C199.789 62.4008 199.674 62.4571 199.504 62.5096C199.337 62.5585 199.146 62.6016 198.931 62.6392C198.716 62.673 198.507 62.7049 198.303 62.7349C198.099 62.7612 197.928 62.7837 197.791 62.8025C197.468 62.8438 197.174 62.9133 196.907 63.0109C196.644 63.1085 196.432 63.2493 196.273 63.4333C196.117 63.6135 196.039 63.8538 196.039 64.1541C196.039 64.5709 196.191 64.8863 196.495 65.1003C196.799 65.3105 197.187 65.4157 197.658 65.4157Z" fill="white"/>
<path d="M203.726 69.8198V57.9253H205.35V59.3277H205.489C205.585 59.1474 205.724 58.9391 205.906 58.7025C206.088 58.466 206.34 58.2595 206.662 58.083C206.985 57.9028 207.411 57.8127 207.941 57.8127C208.631 57.8127 209.246 57.9891 209.787 58.3421C210.329 58.695 210.753 59.2038 211.061 59.8683C211.372 60.5329 211.528 61.3326 211.528 62.2675C211.528 63.2024 211.374 64.004 211.066 64.6723C210.759 65.3368 210.336 65.8493 209.799 66.2098C209.261 66.5665 208.647 66.7448 207.958 66.7448C207.439 66.7448 207.014 66.6566 206.684 66.4801C206.358 66.3036 206.102 66.0971 205.917 65.8606C205.732 65.6241 205.589 65.4138 205.489 65.2298H205.389V69.8198H203.726ZM205.355 62.2506C205.355 62.8588 205.442 63.392 205.617 63.85C205.791 64.3081 206.043 64.6666 206.373 64.9257C206.703 65.181 207.107 65.3087 207.585 65.3087C208.082 65.3087 208.497 65.1754 208.831 64.9088C209.165 64.6385 209.417 64.2724 209.587 63.8106C209.761 63.3488 209.849 62.8288 209.849 62.2506C209.849 61.6799 209.763 61.1674 209.593 60.7131C209.426 60.2588 209.174 59.9002 208.836 59.6374C208.503 59.3746 208.086 59.2432 207.585 59.2432C207.103 59.2432 206.696 59.369 206.362 59.6205C206.032 59.8721 205.782 60.2231 205.611 60.6737C205.441 61.1242 205.355 61.6499 205.355 62.2506Z" fill="white"/>
<path d="M215.054 61.4396V66.5758H213.391V55.0418H215.031V59.3333H215.137C215.337 58.8677 215.643 58.4979 216.055 58.2238C216.466 57.9497 217.004 57.8127 217.667 57.8127C218.253 57.8127 218.765 57.9347 219.202 58.1788C219.643 58.4228 219.984 58.787 220.225 59.2713C220.47 59.7519 220.592 60.3526 220.592 61.0735V66.5758H218.93V61.2763C218.93 60.6417 218.768 60.1499 218.446 59.8007C218.123 59.4478 217.675 59.2713 217.1 59.2713C216.707 59.2713 216.355 59.3558 216.043 59.5248C215.736 59.6937 215.493 59.9415 215.315 60.2682C215.141 60.5911 215.054 60.9815 215.054 61.4396Z" fill="white"/>
<path d="M223.556 69.8198C223.308 69.8198 223.082 69.7991 222.878 69.7578C222.674 69.7203 222.522 69.679 222.422 69.6339L222.822 68.2541C223.126 68.3367 223.397 68.3724 223.634 68.3611C223.871 68.3499 224.081 68.2598 224.263 68.0908C224.448 67.9219 224.611 67.6459 224.752 67.2629L224.958 66.6885L221.832 57.9253H223.612L225.775 64.6385H225.864L228.027 57.9253H229.812L226.292 67.7304C226.129 68.1809 225.922 68.562 225.669 68.8736C225.417 69.189 225.117 69.4256 224.769 69.5832C224.42 69.7409 224.016 69.8198 223.556 69.8198Z" fill="white"/>
<path d="M43.1675 50.5653V6.40872H54.9193V23.2262H55.0896C55.5154 22.105 56.1399 21.0773 56.9631 20.143C57.7863 19.1943 58.8082 18.4397 60.0288 17.8791C61.2494 17.3041 62.6687 17.0167 64.2867 17.0167C66.444 17.0167 68.4949 17.5988 70.4393 18.7631C72.3979 19.9274 73.9876 21.76 75.2082 24.2611C76.4429 26.7622 77.0603 30.0106 77.0603 34.0066C77.0603 37.83 76.4713 40.9995 75.2933 43.5149C74.1295 46.0304 72.5683 47.9061 70.6096 49.1423C68.6652 50.3785 66.5292 50.9965 64.2015 50.9965C62.6687 50.9965 61.299 50.745 60.0926 50.2419C58.9004 49.7244 57.8785 49.0273 57.027 48.1505C56.1896 47.2593 55.5438 46.2531 55.0896 45.132H54.8342V50.5653H43.1675ZM54.6638 34.0066C54.6638 35.6165 54.8696 37.0107 55.2812 38.1894C55.707 39.3537 56.3031 40.2592 57.0695 40.9061C57.8502 41.5385 58.7798 41.8547 59.8585 41.8547C60.9371 41.8547 61.8526 41.5457 62.6048 40.9276C63.3712 40.2952 63.9531 39.3968 64.3505 38.2325C64.7621 37.0539 64.9679 35.6452 64.9679 34.0066C64.9679 32.368 64.7621 30.9665 64.3505 29.8022C63.9531 28.6236 63.3712 27.7252 62.6048 27.1071C61.8526 26.4747 60.9371 26.1584 59.8585 26.1584C58.7798 26.1584 57.8502 26.4747 57.0695 27.1071C56.3031 27.7252 55.707 28.6236 55.2812 29.8022C54.8696 30.9665 54.6638 32.368 54.6638 34.0066Z" fill="white"/>
<path d="M12.7737 50.5653H0L14.3917 6.40872H30.5716L44.9633 50.5653H32.1896L22.652 18.569H22.3113L12.7737 50.5653ZM10.3892 33.1442H34.4037V42.1135H10.3892V33.1442Z" fill="white"/>
<path d="M236.641 6.40872V50.5653H226.763L211.009 27.3659H210.754V50.5653H198.917V6.40872H208.965L224.464 29.5219H224.805V6.40872H236.641Z" fill="white"/>
<path fill-rule="evenodd" clip-rule="evenodd" d="M244.592 7.81199C246.418 7.81199 247.898 6.31304 247.898 4.46399C247.898 2.61495 246.418 1.116 244.592 1.116C242.766 1.116 241.286 2.61495 241.286 4.46399C241.286 6.31304 242.766 7.81199 244.592 7.81199ZM244.592 8.92799C247.027 8.92799 249 6.92939 249 4.46399C249 1.9986 247.027 0 244.592 0C242.158 0 240.184 1.9986 240.184 4.46399C240.184 6.92939 242.158 8.92799 244.592 8.92799Z" fill="white"/>
<path d="M246.003 4.02213H245.127C245.121 3.94874 245.105 3.88217 245.078 3.82241C245.052 3.76265 245.015 3.71127 244.969 3.66829C244.923 3.62426 244.868 3.59071 244.803 3.56764C244.738 3.54353 244.664 3.53147 244.581 3.53147C244.436 3.53147 244.313 3.56712 244.213 3.63841C244.113 3.7097 244.038 3.81192 243.986 3.94507C243.935 4.07823 243.91 4.23811 243.91 4.42473C243.91 4.62184 243.936 4.78696 243.988 4.92011C244.04 5.05222 244.116 5.15182 244.216 5.21892C244.315 5.28497 244.435 5.31799 244.574 5.31799C244.654 5.31799 244.726 5.30803 244.789 5.28811C244.852 5.26714 244.907 5.23726 244.953 5.19847C245 5.15968 245.038 5.11302 245.067 5.05851C245.097 5.00294 245.117 4.94056 245.127 4.87136L246.003 4.87765C245.993 5.01395 245.955 5.15287 245.89 5.2944C245.825 5.43489 245.732 5.5649 245.612 5.68442C245.493 5.80289 245.345 5.8983 245.169 5.97064C244.993 6.04298 244.789 6.07915 244.556 6.07915C244.264 6.07915 244.002 6.01572 243.77 5.88886C243.539 5.762 243.357 5.57538 243.222 5.329C243.088 5.08262 243.022 4.7812 243.022 4.42473C243.022 4.06617 243.09 3.76422 243.227 3.51889C243.363 3.27251 243.548 3.08641 243.779 2.9606C244.011 2.83374 244.27 2.77031 244.556 2.77031C244.757 2.77031 244.941 2.79809 245.11 2.85366C245.279 2.90923 245.427 2.99048 245.554 3.09742C245.682 3.20331 245.784 3.33384 245.862 3.48901C245.939 3.64418 245.987 3.82188 246.003 4.02213Z" fill="white"/>
<path d="M162.773 50.9032V6.74657H194.196V16.4058H174.61V23.9952H192.578V33.6545H174.61V41.2439H194.111V50.9032H162.773Z" fill="white"/>
<path d="M127.511 50.5653V6.40872H158.935V16.068H139.348V23.6574H157.317V33.3166H139.348V40.9061H158.849V50.5653H127.511Z" fill="white"/>
<path fill-rule="evenodd" clip-rule="evenodd" d="M88.1528 49.9643H72.7674V45.5003H88.1528V49.9643Z" fill="white"/>
<path d="M86.7937 50.629V6.43552C86.7937 6.43552 99.3485 6.4352 108.392 6.43552C117.435 6.43585 125.933 17.903 126.023 29.2019C126.111 40.1961 115.82 50.7228 108.392 50.629C100.964 50.5352 86.7937 50.629 86.7937 50.629Z" fill="white"/>
<path d="M122.056 28.7554C122.056 37.6308 114.952 44.8258 106.188 44.8258C97.4242 44.8258 90.3198 37.6308 90.3198 28.7554C90.3198 19.88 97.4242 12.685 106.188 12.685C114.952 12.685 122.056 19.88 122.056 28.7554Z" fill="#00151F"/>
<path d="M104.848 22.6063L110.71 12.4284C113.251 13.1069 115.505 14.3509 117.474 16.1603C119.442 17.9697 120.873 20.1183 121.765 22.6063H104.848ZM100.2 26.8471L94.4631 16.6692C95.9706 15.1707 97.7226 13.9833 99.7192 13.1069C101.716 12.2305 103.872 11.7922 106.188 11.7922C106.551 11.7922 106.97 11.8137 107.444 11.8567C107.919 11.8997 108.351 11.9489 108.742 12.0043L100.2 26.8471ZM89.9826 32.9962C89.8151 32.3177 89.6822 31.625 89.5839 30.9182C89.4857 30.2114 89.4371 29.4905 89.4382 28.7554C89.4382 26.7481 89.7593 24.8539 90.4013 23.0727C91.0434 21.2916 91.9507 19.666 93.1232 18.1958L101.582 32.9962H89.9826ZM101.707 45.0825C99.167 44.4039 96.9058 43.16 94.9237 41.3506C92.9417 39.5412 91.504 37.3925 90.6107 34.9046H107.486L101.707 45.0825ZM106.188 45.7186C105.769 45.7186 105.343 45.6903 104.91 45.6338C104.477 45.5772 104.065 45.5207 103.675 45.4641L112.176 30.6638L117.913 40.8417C116.405 42.3401 114.654 43.5275 112.658 44.4039C110.663 45.2804 108.506 45.7186 106.188 45.7186ZM119.253 39.315L110.794 24.5146H122.393C122.561 25.1931 122.694 25.8858 122.792 26.5926C122.89 27.2994 122.939 28.0203 122.937 28.7554C122.937 30.7344 122.596 32.6287 121.912 34.4381C121.229 36.2475 120.342 37.8731 119.253 39.315Z" fill="white"/>
</svg>
