<svg width="100" height="100" viewBox="0 0 100 100" fill="none" xmlns="http://www.w3.org/2000/svg">
<path d="M15.3796 26.217C21.2255 19.8795 30.0713 16.667 41.6671 16.667H45.8338V28.4128L42.4838 29.0837C36.7755 30.2253 32.8046 32.4712 30.6796 35.767C29.5705 37.5424 28.9416 39.5754 28.8547 41.667H41.6671C42.7722 41.667 43.832 42.106 44.6134 42.8874C45.3948 43.6688 45.8338 44.7286 45.8338 45.8337V75.0003C45.8338 79.5962 42.0963 83.3337 37.5005 83.3337H12.5005C11.3954 83.3337 10.3356 82.8947 9.5542 82.1133C8.7728 81.3319 8.33382 80.2721 8.33382 79.167V58.3337L8.34632 46.1712C8.30882 45.7087 7.51715 34.7503 15.3796 26.217ZM83.3338 83.3337H58.3338C57.2287 83.3337 56.1689 82.8947 55.3875 82.1133C54.6061 81.3319 54.1671 80.2721 54.1671 79.167V58.3337L54.1796 46.1712C54.1421 45.7087 53.3505 34.7503 61.213 26.217C67.0588 19.8795 75.9047 16.667 87.5005 16.667H91.6671V28.4128L88.3171 29.0837C82.6088 30.2253 78.638 32.4712 76.513 35.767C75.4039 37.5424 74.775 39.5754 74.688 41.667H87.5005C88.6056 41.667 89.6654 42.106 90.4468 42.8874C91.2282 43.6688 91.6671 44.7286 91.6671 45.8337V75.0003C91.6671 79.5962 87.9296 83.3337 83.3338 83.3337Z" fill="white"/>
</svg>
